<svg preserveAspectRatio="none" id="orangeButton" xmlns="http://www.w3.org/2000/svg" width="377.849" height="73.163" viewBox="0 0 377.849 73.163">
  <path id="Path_4670" data-name="Path 4670" d="M183.511,36.169a1.562,1.562,0,0,1-.633.089c-.366-.331-.2-.726-.113-1.16l.513-.074.506.435h3.7c.593.538.619.538,1.206,0l.453.37H194.1l.453.415.453-.4h1.645c.06-.059.14-.1.146-.158a.219.219,0,0,0-.213-.242c-.406-.02-.819,0-1.192,0l-.36-.351a6.941,6.941,0,0,0-1.605-.054c-.486-.025-.972,0-1.459,0h-1.578l-.373-.365a9.358,9.358,0,0,0-1.625-.044c-.559-.015-1.112,0-1.665,0h-4.8c-.553,0-1.112.015-1.665,0a7.781,7.781,0,0,1-1.6-.049c-.246-.173-.147-.385-.153-.563l.373-.425c-.147-.247-.373-.158-.566-.2-.153-.035-.22-.163-.166-.257.027-.059.093-.138.14-.138.559-.01,1.112,0,1.8,0l.626.795h.912c.24-.123.24-.212.067-.316-.213-.128-.546.015-.679-.291.047-.044.093-.128.146-.138.266-.035.539-.044.819-.069l.473.41.4.02L183.3,33h.406l.446.41.42-.025.293-.291a1.533,1.533,0,0,1,.373-.089c.759-.01,1.519,0,2.225,0l.346-.341a.51.51,0,0,1,.173-.069q2.607-.007,5.208,0a.656.656,0,0,1,.18.064l.293.291a.715.715,0,0,0,.186.049h3.543c.306-.1.44-.568.9-.4l.433.385.433-.39h.393l.44.385h2.494l.453-.36.326.321a.607.607,0,0,0,.186.054q3.017.007,6.041,0c.313.084.433.563.906.4l.44-.39h.813l.44.4h.4l.446-.385.306.3c.333.262.839-.123,1.132.286v.42l.606.593.446-.38h.38l.872-.815a.657.657,0,0,1,.719.3c.266.193.553.04.833.133a3.835,3.835,0,0,1,.466-.375.475.475,0,0,1,.553.015,3.9,3.9,0,0,1,.32.306h2.506l.433-.385h3.3l.453-.4.433.38.306-.3a2.743,2.743,0,0,1,1.4-.035c.253.464.7.336,1.1.356a4.972,4.972,0,0,0,.912-.8l.406-.015c.386.148.1.657.46.82h.807l.439.4c.593-.543.633-.543,1.172-.054a10.463,10.463,0,0,0,1.605.084,4.541,4.541,0,0,0,.952-.825l.866.81h13.14a.361.361,0,0,0,.353-.168c.067-.109-.173-.247-.44-.247h-1.039c-.133,0-.266-.03-.406-.04-.306-.277-.093-.642-.173-1l.679-.573h.779c.246.1.38.4.653.573-.12.114-.167.2-.213.207-.42.015-.832,0-1.252.02-.047,0-.113.074-.147.133a.183.183,0,0,0,.16.262c.693.025,1.385.01,2.071.01a1.419,1.419,0,0,1,.2.963,1.525,1.525,0,0,0,.686.622l.3-.3a1.189,1.189,0,0,1,.633.607c-.353.36-.353.36.033.76l-.566.6-.739.039c-.36-.114-.506-.425-.746-.617l.373-.444c-.073-.074-.12-.163-.173-.163-1.112-.01-2.218-.01-3.337-.01l-.473.425c-.093-.257-.173-.5-.266-.731a.148.148,0,0,0-.14-.064.267.267,0,0,0-.147.138c-.167.632-.16.632-.533.637h-1.039a1.25,1.25,0,0,0-.386.064.251.251,0,0,0-.153.346c-.067,0-.166.03-.2,0-.207-.183-.393-.385-.6-.573-.093-.089-.22-.247-.306-.227-.42.079-.553-.351-.872-.42a.523.523,0,0,0-.38.069c-.26.222-.493.479-.753.731H239.22l-.453.415-.44-.39h-.393l-.446.38-.313-.311c-1.172-.114-1.172-.118-1.538.128l.733.726.246.7c.246-.01.5.1.6-.128.093-.212-.187-.281-.28-.444.067-.074.133-.227.213-.227.966-.02,1.931-.015,2.837-.015l.473.385.326-.321c.393-.143.813.01,1.219-.1l.513.425h1.239l.42-.36c.38.128.073.637.426.795h1.041c.047.3.306.509.539.4a3.6,3.6,0,0,0,.526-.39h5.348l.479-.42h.4l.433.385.419-.37h1.666a.37.37,0,0,1,.206.36.421.421,0,0,0,.686.37,1.835,1.835,0,0,0,.306-.3,12.015,12.015,0,0,1,1.638-.044,1.585,1.585,0,0,0,.653-.672c-.293-.3-.659-.079-.986-.153a.834.834,0,0,1-.147-.138.184.184,0,0,1,.167-.262c.553-.025,1.106-.01,1.638-.01l.606-.6c-.093-.074-.187-.207-.286-.212a20.661,20.661,0,0,1-2.471-.084c-.053-.01-.133-.1-.127-.138a.235.235,0,0,1,.14-.143,4.106,4.106,0,0,1,.606-.054h6.493l.453-.39.433.385h.4l.446.415.406-.02.473-.415h5.381l.32-.316c.466-.178.932.01,1.312-.084l.406.4.433-.365.433.39H276.7l.44.4h5.4l.453-.37.32.316c2.764.138,3.23.118,3.6-.153l-.6-.593h-5.4l-.46-.42h-7.905l-.446-.41h-5.228c-.146,0-.293-.03-.326-.178-.013-.059.14-.183.24-.227a1.632,1.632,0,0,1,.386-.059l.3-.291a.657.657,0,0,1,.18-.064q.939-.007,1.878,0c.053,0,.113.049.173.074l.313.311h1.262l.42-.37.44.4h7.486l.44.39.313-.306a2.612,2.612,0,0,1,.38-.084h1.792c.606.558.639.558,1.232.02l.446.385h9.138l.466.42h1.632c.366.158.06.667.46.79l.746-.736c.406-.212.626.069.879.336h10.39l.466.41.426-.375.446.39a.771.771,0,0,0,.579-.173c.426-.375.493-.36,1,.119a.626.626,0,0,0,.18.054h8.172l.466.4h.819l.433-.4h.406l.44.41.4-.02.439-.37.313.311a.55.55,0,0,0,.18.074q.939.007,1.878,0a.527.527,0,0,0,.18-.064l.293-.291c.413-.207.626.089.873.346H328l.433-.4h.406l.446.41.42-.025.293-.291a.434.434,0,0,1,.373-.1c.2.02.406.02.586.03l.313.311c.24.04.293-.2.453-.291l.413-.049.466.4h1.658l.433-.4h.4l.44.4.34-.331.946-.114a1.532,1.532,0,0,0,.147-.148c.107-.148.2-.2.3-.138.133.079.133.2.14.356.013.3.1.36.34.39a.433.433,0,0,0,.38-.1.528.528,0,0,0,.06-.558c-.08-.109-.2-.188-.286-.3-.08-.089-.033-.212.133-.272a1.207,1.207,0,0,1,.4-.01.475.475,0,0,0,.206-.538c-.027-.1-.16-.272-.24-.272-1.8-.015-3.61-.01-5.381-.01l-.773.755c-.393-.133-.579-.5-.892-.751h-3.31l-.466-.42h-6.647l-.453-.41-.42.035c-.579.523-.613.523-1.159.03a1.27,1.27,0,0,0-.18-.059,1.44,1.44,0,0,0-.206,0h-9.384a1.442,1.442,0,0,1-.207,0,.817.817,0,0,1-.18-.084l-.306-.306-.433.37-.433-.385h-1.232l-.446.385-.32-.311a5.243,5.243,0,0,0-1.419-.079,5.826,5.826,0,0,1-1.212-.054c-.246-.148-.133-.37-.16-.563.26-.351.639-.148.992-.207l.473.4h7.493l.426-.385.433.39h1.658a.42.42,0,0,0,.206-.341c.02-.227-.12-.469-.273-.474h-3.277l-.333-.331c-.26-.074-.273.227-.533.257l-.38-.311-.433.385h-.813l-.46-.42h-6.22l-.433-.375h-.839c-.593.533-.619.533-1.179.025-.053.015-.113.015-.146.049a3.574,3.574,0,0,0-.306.3l-.446-.4h-2.065l-.433-.4h-2.071l-.466.4-.426-.054-.34-.336-.819-.04-.466-.375h-1.232l-.42.37-.406.02-.446-.41h-.46c-.08.227-.153.464-.253.7a.166.166,0,0,1-.14.084c-.053-.02-.133-.084-.14-.138-.053-.321-.013-.676-.533-.657-.619.03-1.239.01-1.8.01l-.346-.346a2.793,2.793,0,0,0-1.452.025l-.12.568c-.153.148-.153.148-.573-.242h-1.232l-.453-.415h-.826l-.746.736c-.253.089-.286-.188-.526-.3h-.719l-.493-.4-.4-.04-.46.4h-.813l-.453-.41h-.386l-.44-.385h-1.259l-.753.746c-.386-.148-.586-.509-.892-.76h-.406l-.446.4h-.393l-.44-.385h-1.672l-.32.311c-.246.064-.286-.188-.466-.281a.493.493,0,0,0-.16-.044h-2.324l-.453-.38a2.2,2.2,0,0,1-.386-.035c-.153-.044-.226-.153-.193-.252.02-.059.093-.143.146-.143h9.59l.426.385.453-.4.42.044.3.3a4.919,4.919,0,0,0,1.425.069c.553.015,1.112,0,1.665,0h4.481l.36.351c.406.188.639-.059.866-.346l.453.4h.821l.433.4h1.239l.428-.4h.846l.32.316a1.822,1.822,0,0,0,.8.069c.213.01.42.01.626,0a2.114,2.114,0,0,0,.793-.054l.333-.331h1.265l.42.365.426-.38.453.415h2.065l.306.306a.738.738,0,0,0,.166.089.963.963,0,0,0,.206,0h12.1a.6.6,0,0,1,.186.049l.313.306a8.089,8.089,0,0,0,1.625.049c.553.02,1.112,0,1.665,0H318l.393.385h9.131l.486.425h.826l.433-.4h1.652l.433.4h1.672l.313-.306a1.544,1.544,0,0,1,.979-.035l.293.291a1.315,1.315,0,0,0,.18.064,1.536,1.536,0,0,0,.213,0h28.565a.962.962,0,0,1,.206,0,.92.92,0,0,1,.18.074l.313.311h2.512l.44-.38h.8l.453-.415h.4l.453.41c.553-.049.539-.049.613-.578a.364.364,0,0,1,.273-.237c.546-.025,1.1-.01,1.592-.01l.2-.2c-.107-.069-.213-.2-.32-.2-1.112-.01-2.224,0-3.337-.01a1.131,1.131,0,0,1-.38-.084c-.047-.015-.073-.089-.107-.138.047-.049.093-.138.146-.138.553-.03,1.1-.044,1.692-.064l.44-.385h.813l.44.4h2.071l.44-.39a.653.653,0,0,1,.719.306.952.952,0,0,0,.186.089.963.963,0,0,0,.206,0H389.4a4.342,4.342,0,0,1,.806.064c.16.03.2.188.153.346-.193,0-.386-.01-.579,0-.053,0-.113.059-.153.1s-.073.1-.06.133a.262.262,0,0,0,.133.133c.446.114.573.04.659-.37H391.4c.353.153.047.662.446.795l.739-.726c.233-.039.286.2.486.316h.912l.633-.8h.746c-.047.158-.007.311.153.346a4.869,4.869,0,0,0,.806.064c.693.01,1.385,0,2.085,0,.053,0,.113.054.173.084l.313.306.446-.385h2.045l.46-.415h1.232l.453.41c.04,0,.866.385.892.41h.679l.486-.38h.819l.413.346c.859.114,1.752-.059,2.657.1l.113.968.566.607h.43c.446-.291.007-.8.306-1.121.053-.035.107-.1.16-.1h2.291c.147,0,.293.039.326.183.013.054-.153.207-.246.217-.206.02-.406.025-.539.217v.4l-.433.454V32c-.24.084-.48.163-.719.257a.145.145,0,0,0-.053.138c.033.054.093.128.147.138a2.653,2.653,0,0,0,.393.01l.912.849h7.866a1.824,1.824,0,0,0,.519.38c.186.054.4.025.533.217-.28.435-.786.04-1.119.286-.2.153-.113.365-.107.558.466.173.266.731.6,1h3.75l.44-.4h1.245c.047-.049.12-.089.14-.148a.192.192,0,0,0-.186-.247c-.766-.02-1.532-.015-2.291-.01-.153,0-.3-.035-.333-.178-.013-.059.153-.222.24-.222,1.106-.015,2.211-.01,3.217-.01.326.183.226.41.253.6.047.049.08.133.14.143a6.126,6.126,0,0,0,1.745.04c.286-.183.153-.415.24-.622.02-.025.067-.1.12-.114a5.013,5.013,0,0,1,.606-.049c.273,0,.493.119.44.242a.292.292,0,0,1-.34.168.41.41,0,0,0-.206,0c-.16.064-.226.163-.173.262.027.054.093.138.147.138q4.575.007,9.158,0l.46.42h1.228l.6.592c-.1.074-.2.207-.3.212-.686.015-1.372.01-1.985.01l-.819.81h-.813l-.46.42h-1.245a.566.566,0,0,0-.14.148.186.186,0,0,0,.173.252c.553.03,1.106.01,1.638.01l.32.316c.446.212.939.015,1.3.1l.733.642-.6.207-.493-.425-.433.39h-.406c-.48.39-.007.923-.253,1.279a2.191,2.191,0,0,0,.773.8h1.172a.978.978,0,0,0,.7.4c.167,0,.326.212.553.37h.793l.446-.39c.513,0,1.066-.01,1.618.015.087,0,.206.168.233.281a.473.473,0,0,1-.193.523l-.446-.41c-.559.025-.566.025-.606.592l-.839.874v.39a.384.384,0,0,1-.34.2h-1.9l-.46.4h-3.748l-.433-.4h-.4l-.446-.41-.4-.025-.42-.346-.619.558a1.4,1.4,0,0,0,0,.237.271.271,0,0,1-.16.341c-.1.035-.213-.054-.253-.2a2.642,2.642,0,0,1-.04-.39c-.14-.222-.353-.168-.573-.178-.14-.128-.28-.277-.44-.4-.04-.035-.133,0-.206,0a.241.241,0,0,0-.146-.341,3.317,3.317,0,0,0-.586-.069c-.206-.01-.413,0-.619,0h-.826c-.2,0-.393.025-.466.025l-.766.627.619.2.486-.42.4-.025.44.4.44-.4h1.025c0,.069.033.158-.007.2a5.382,5.382,0,0,1-.4.43c.286.326.666.123.979.2a.392.392,0,0,1,.253.267,5.147,5.147,0,0,1,.007.711c-.186.316-.413.222-.639.247l-.546.593c.053.059.127.212.2.217,1.106.015,2.218.01,3.283.01l.333-.331c1.678-.1,4.189-.114,6.407-.02.18.2.36.415.679.346a6.079,6.079,0,0,1,.919.82h.4l.466.425h.813c.107.1.2.2.306.3a.383.383,0,0,0,.16.1c.133.025.273.015.4.049.06.015.1.089.147.138l.02.4c-.446.36-.466.365-.986-.123a1.545,1.545,0,0,0-.979.03c-.04.054-.113.109-.113.163-.013.267-.007.538-.007.78l1.232,1.21-.373.425c.366.459.886.118,1.392.227l.44.351.366.049a8.73,8.73,0,0,1,1.086.992l-.353.425-.033.4.42.464-.693.573h-1.54l-.48.415-.18.02c-.3.035-.44.114-.446.291a.6.6,0,0,0,.067.38,7.888,7.888,0,0,0,.579.573h1.239l.606.6v2.879l.42.444v.4a.912.912,0,0,0-.46.77l-.979,1.086h-.866l-.753.741c-.26.123-.539.025-.8.074-.107.02-.193.138-.293.212l.3.291c.033.054.093.109.093.163.013.543.007,1.086.007,1.5L442.6,66.667l-.353.025-.739.736c-.233.089-.539.01-.713.281-.127.2-.34.188-.579.183l-.559.528a.178.178,0,0,0,.14.281c.413.039.826.015,1.219.015l.5-.444.593.183-.593.607a5.681,5.681,0,0,1-1.272.069l-.486.4c-1.046,0-2.158,0-3.263.01a.206.206,0,0,0-.206.242.277.277,0,0,0,.346.163,1.026,1.026,0,0,1,.213,0l.44.39.44-.39c.226,0,.426-.01.573.178a5.483,5.483,0,0,0,.44.42l-.4.444c.06.059.107.148.153.148.553.01,1.106,0,1.712,0l.42-.37h.393c.306.143.16.474.313.711.286.232.646.069.979.1a7.336,7.336,0,0,0,.806,0l.16.158c-.246.3-.506.6-.759.889l.373.41L441.1,74.792a3.835,3.835,0,0,1-1.212.069c-.42.015-.839-.01-1.252.015-.107,0-.206.133-.306.2.107.069.213.183.333.188.346.03.693-.01,1.039.025.1,0,.226.138.273.242.087.168-.033.5-.173.533a2.7,2.7,0,0,1-.42.035l-.446.41h-.819l-.46.42h-.813l-.326.326c-.566.207-1.2-.03-1.792.123l-.3.291a5.039,5.039,0,0,1-1.265.074l-.453.365-.5.059-.566.8h-.626c-.047.049-.12.089-.14.148a.191.191,0,0,0,.18.252c.413.03.826.01,1.192.01.22.123.246.222.12.316-.306.217-.673,0-.979.148-.06.03-.133.089-.14.143s.067.128.12.143a2.664,2.664,0,0,0,1.379,0c.24-.148.1-.38.193-.607.233-.3.613-.059.926-.178l.493.43h1.655l.433-.4h.4l.433-.4h.839l.606.593c-.16.355-.679.074-.826.444l-.02.4c-.266.336-.646.123-1.106.217l-.579.795h-1l-.473.425h-1.219l-.313.306c-.453.2-.946,0-1.4.143l-.3.3c-.733.178-1.492-.069-2.211.118l-.333.331h-2.884l-.479.425h-2.464l-.466.425h-3.73l-.466.42h-5.395l-.306.306a.559.559,0,0,1-.173.084,3.967,3.967,0,0,1-.42,0h-8.132a.813.813,0,0,0-.18.049l-.333.326h-.773l-.513.42h-6.194l-.486.435c-.386,0-.806-.025-1.212.01a.178.178,0,0,0-.16.262c.033.054.093.128.147.133.553.01,1.106,0,1.645,0l.439-.4h.839l.326.321a1.98,1.98,0,0,0,.926.054l.333-.331a3.6,3.6,0,0,1,.393-.059H400.9a.586.586,0,0,1,.173.079l.313.311h1.27l.44-.39h3.1c.266,0,.453.138.36.277a.3.3,0,0,1-.36.133c-.153-.04-.306,0-.333.158-.02.079.107.193.18.286a1.119,1.119,0,0,0,.147.148c-.093.074-.18.212-.273.217-.413.025-.833.01-1.252.01H403.5l-.393.385-.446-.365h-.819l-.433.385h-5.395l-.453.41h-3.743a.4.4,0,0,1-.206-.336c-.02-.227.113-.474.26-.479,1.665-.01,3.33-.02,4.988-.039.053,0,.12-.084.14-.143.013-.035-.047-.1-.093-.138a.306.306,0,0,0-.173-.084q-4.266-.007-8.545,0c-.193,0-.286.123-.333.41h-.579a.276.276,0,0,0-.146.1c-.033.035-.08.1-.067.128a.229.229,0,0,0,.133.133c.446.119.573.039.659-.37h1.024l.446.41h1.026c.047.158.007.316-.147.346a16.349,16.349,0,0,1-2.111.079l-.46.38h-.819l-.433-.385h-6.653l-.453.41h-5.821l-.593.588a1.568,1.568,0,0,1-.033.4.469.469,0,0,1-.5.242c-.486-.01-.972,0-1.459,0a2.7,2.7,0,0,1-.393-.059l-.293-.291a.608.608,0,0,0-.186-.054h-2.744l-.473.4h-2.031l-.46.415-.433-.39h-.4l-.433.385H360.1c-.4-.38-.4-.375-.759-.04a.285.285,0,0,1-.187.054H348.908l-.473.4h-1.618l-.466.42h-.4l-.433-.385-.426.37h-.846l-.353-.356a9.363,9.363,0,0,0-1.745,0l-.326.326a.87.87,0,0,1-.187.049h-9.417l-.466.4h-6.627l-.453.42-.453-.415h-2.036l-.466-.4-.42.044-.3.291a22.112,22.112,0,0,1-4.316,0l-.293-.286c-.413-.212-.626.094-.872.346h-5.008l-.433-.4h-4.292l-.633.8h-1.3c-.226-.158-.386-.365-.553-.37a.978.978,0,0,1-.7-.4h-5.854l-.426.365-.433-.39h-1.232l-.446.415-.419-.03-.739-.726c-.1-.039-.18.02-.3.148-.18.207-.386.39-.593.593H290.49l-.433-.39-.44.4-.42-.035-.3-.291a.65.65,0,0,0-.173-.084.941.941,0,0,0-.206,0h-1.8l-.346.346a5.327,5.327,0,0,1-1.265.069l-.473-.4h-1.605l-.486-.42h-.393l-.44.4h-.819l-.433-.39h-2.1l-.306.306c-.06.03-.12.084-.173.084-1.112,0-2.224.01-3.337,0a2.393,2.393,0,0,1-.8-.049l-.306-.3a.513.513,0,0,0-.18-.059h-1.918l-.453.375-.4.035-.453-.4h-2.071l-.44.4-.293-.291c-.053-.035-.107-.1-.167-.1-.546-.01-1.1,0-1.612,0-.613-.558-.646-.558-1.225-.03l-.453-.365h-.813l-.426.38-.433-.39h-1.232l-.433.385h-.846l-.34-.331a6.984,6.984,0,0,0-1.612-.054c-.553-.025-1.112,0-1.665,0h-3.037l-.36-.356a.607.607,0,0,0-.187-.054q-2.188-.007-4.376,0a2.879,2.879,0,0,0-.886-.41l-.453.41h-4.988l-.44-.4h-.813l-.44.38h-1.259l-.36-.351a8.52,8.52,0,0,0-1.738,0c-.18.173-.18.173-.18.583-.539.351-.719.291-.826-.257a.574.574,0,0,0-.04-.188c-.027-.059-.093-.1-.153-.163h-1.678l-.433.4h-.406a5.028,5.028,0,0,0-.886-.775l-.733.726c-.479.158-1.046-.1-1.525.227.16.212.42.3.353.5-.08.247-.353.119-.539.148l-.46-.425h-7.486l-.613-.6a2.632,2.632,0,0,0-.007-.4c-.007-.054-.073-.114-.133-.148a.174.174,0,0,0-.26.148c.013.425-.113.652-.573.6l-.486.39-.426-.385h-2.9l-.453.41-.42-.03-.293-.291c-.053-.03-.113-.089-.167-.089h-4.888c-.326.188-.226.415-.253.593-.147.311-.486.163-.7.311-.047.035-.12.1-.107.138.013.059.087.143.14.143.686.03,1.379.049,2.111.069l.44.38h7.885l.46.425h3.317l.466.425h7.066l.333.331a6.409,6.409,0,0,0,1.605.059c.486.025.972,0,1.459.01a11,11,0,0,1,1.618.035c.22.114.233.237.04.3-.32.1-.666.114-.852.464h-2.538l-.433-.38h-6.22l-.466-.425H222.5l-.446-.39-.366.36a8.888,8.888,0,0,1-1.738,0l-.313-.311a.559.559,0,0,0-.187-.064h-4.835l-.473-.39h-5.381c-.193-.188-.393-.37-.579-.568-.027-.025-.007-.094-.007-.148l.3-.286c-.226-.306-.393-.676-.879-.672-.107,0-.22-.128-.326-.2a2.424,2.424,0,0,1,.326-.2c.12-.044.26-.049.38-.094.047-.015.107-.1.093-.133-.02-.059-.087-.143-.14-.143-.966-.025-1.938-.039-2.9-.059l-.473.42h-.806c-.326.42-.326.42,0,.834h.393a.472.472,0,0,1,.2.543.423.423,0,0,1-.253.262,5.943,5.943,0,0,1-.779.01l-.34-.331c-.586-.2-1.219.03-1.811-.138l-.326-.321-.446.365h-.819c-.12-.114-.273-.247-.419-.39-.313-.306-.313-.479.007-.844.047-.049.1-.094.18-.173l-.559-.593a8.827,8.827,0,0,0-1.732,0c-.286.173-.173.4-.193.588.113.069.22.183.333.193.346.025.693,0,1.046.01.16,0,.286.2.28.449a1.816,1.816,0,0,1-.027.2c-.413.173-.413.173-5.155.173l-.453-.41h-.812l-.44.4-.333-.321c-.559-.207-1.192.03-1.785-.119l-.3-.291c-.06-.025-.113-.074-.173-.074h-3.13a.539.539,0,0,0-.18.069l-.32.316-.446-.375h-1.625l-.466-.42h-3.05l-.793.795h-.773c-.26-.484-.706-.37-1.1-.385-.34-.054-.44-.593-1.046-.3l-.313.272-.433-.385h-.4l-.433.385-.486-.415h-.786l-.326-.321a1.442,1.442,0,0,0-.686.607l.04.4c.047.049.1.138.147.143h2.484l.466.43H181.2l.466.425h1.225l.306.306c.46.2.932.015,1.332.1l.36-.356c.473-.089.952-.212,1.292.321h7.06l.479.425h2.471l.46.42h2.91c.1.1.193.2.3.3a.618.618,0,0,0,.146.079c.573-.523.613-.523,1.159-.02.093-.059.193-.109.286-.173a2.172,2.172,0,0,0,.166-.163H203.3l.433.385H206.2l.453.41H207.9l.433-.385h2.091l.313.306a.54.54,0,0,0,.173.079,3.863,3.863,0,0,0,.413,0h7.719a.626.626,0,0,1,.18.054l.3.291a.64.64,0,0,0,.18.059h5.668l.46.385.42-.365.433.385h.813l.446-.385.34.331a7.532,7.532,0,0,0,1.605.059,7.676,7.676,0,0,1,1.432.064l.333.321.446-.365h.819l.433.39h2.067l.466.425h7.466l.48.42H251.3l.313.311a.54.54,0,0,0,.173.079c.14.01.28,0,.419,0h8.338a1.417,1.417,0,0,1,.206,0,1.123,1.123,0,0,1,.187.059l.293.291a.607.607,0,0,0,.186.054h15.671l.486.41h20.155c.266,0,.446.1.466.277.027.2.02.459-.206.523a3.272,3.272,0,0,1-.826.015l-.453-.41h-23.33l-.353-.351a16.722,16.722,0,0,0-1.738-.079.851.851,0,0,1-.912.435l-.389-.054-.326-.321h-.846l-.44.365h-.813l-.44-.39H263.8l-.44.4-.3-.3c-.053-.035-.107-.094-.167-.1a3.821,3.821,0,0,0-.413,0H256.7l-.34-.331a3.988,3.988,0,0,0-1.212-.079,2.574,2.574,0,0,0-.326.212c-.36.286-.493.286-.866-.039-.047-.044-.093-.094-.16-.158h-5.813l-.473-.425h-1.239l-.433.4h-.819l-.48-.425h-5.381l-.34-.331a7.3,7.3,0,0,0-1.612-.054c-.559-.02-1.112,0-1.672,0H232.41c-.559,0-1.112.015-1.672,0a8.889,8.889,0,0,1-1.625-.049l-.306-.306a.736.736,0,0,0-.186-.054h-5.238l-.466-.4h-5.375l-.466-.425h-.4l-.433.4H215.4l-.306-.3c-.053-.035-.107-.094-.166-.1h-2.851l-.346.341c-.42-.094-.533-.548-.946-.691l-.386.351h-1.232l-.453.41-.4-.025-.48-.41h-7.459l-.32-.316a.541.541,0,0,0-.18-.069h-2.291l-.892-.42-.473.41h-2.9l-.433-.4h-.406c-.1-.1-.2-.2-.3-.291a1.305,1.305,0,0,0-.147-.094l-.293.291a1.512,1.512,0,0,1-.38.089c-.48.015-.959,0-1.385,0l-.38-.37a2.9,2.9,0,0,0-.559-.035c-.333.039-.493-.183-.706-.4l-.44.37-.433-.4h-2.9l-.453-.4c-.213,0-.42-.03-.573.168a1.226,1.226,0,0,1-.28.193l-.306-.3a1.307,1.307,0,0,0-.8-.049c-.18.03-.326.217-.513.356l-.426-.365h-1.645l-.44.39-.42-.38h-1.678a1.97,1.97,0,0,1-.313.3,1.036,1.036,0,0,1-.38.089c-.053,0-.153-.015-.173-.054-.22-.41-.766-.247-1.012-.583-.147-.193-.346-.183-.573-.178l-.44.39-.453-.4H170.8l-.446-.385-.32.316c-.586.2-1.212-.03-1.812.138l-.32.321h-.839a.36.36,0,0,1-.113-.059c-.246-.237-.493-.484-.746-.731h-1.665l-.433.4h-.413c-.18-.193-.18-.193.193-.588-.093-.079-.186-.217-.28-.217-.826-.02-1.652-.01-2.351-.01-.366.2-.226.435-.286.632-.52.341-.706.277-.813-.262a.857.857,0,0,0-.033-.193.37.37,0,0,0-.34-.183c-.16-.015-.3,0-.366.123a3.37,3.37,0,0,0-.1.365,3.638,3.638,0,0,1-.2.336h-.833l-.453-.42h-.813l-1.192-1.17a.867.867,0,0,0-.186-.049H150.81l-.44-.375c-.073.079-.2.158-.22.257-.033.2.013.41-.013.612-.02.119-.133.217-.2.331h-.954l-.673-.844h-.9l-.32-.316a4.785,4.785,0,0,0-1.259-.074l-.486.39h-2.062l-.44-.375h-2.9l-.426.39-.453-.415h-1.2l-.453-.375-.34.336a10.323,10.323,0,0,1-1.618.054,4.6,4.6,0,0,1-.912-.8l-.419-.02-.859.8H131.18l-.46-.4a6.645,6.645,0,0,1-1.265-.054l-.313-.306a8.4,8.4,0,0,0-1.618-.044c-.559-.02-1.112,0-1.672,0h-5.1l-.393-.39h-5.381l-.486-.425h-8.3l-.453-.415h-.4l-.446.39-.326-.321c-.573-.2-1.2.035-1.8-.128l-.306-.306a10.44,10.44,0,0,0-1.625-.049,5.5,5.5,0,0,1-1.425-.074l-.32-.316H95.37l-.48-.425H92.426l-.466-.42H89.483l-.473-.425h-3.3L85.4,84.83c-.486-.242-1.086.079-1.605-.257.1-.089.147-.168.2-.173a7.537,7.537,0,0,1,.806-.069h2.5a2.816,2.816,0,0,0,.892.41l.46-.4h.393l.453.41h7.06l.48.425h7.473l.313.306c.053.03.113.084.173.084h14.374c.2,0,.4-.02.573-.03l.173-.173c-.107-.069-.213-.2-.326-.2-.972-.015-1.945,0-2.917-.015a1.133,1.133,0,0,1-.38-.084c-.047-.015-.073-.089-.1-.128l.366-.425c-.073-.069-.12-.158-.173-.158-.273-.02-.553-.01-.826-.025-.053,0-.12-.074-.153-.128a.176.176,0,0,1,.147-.267c1.672-.02,3.337-.01,4.975-.01l.446.39h2.5l.32-.311c.246-.158.526-.049.813-.089a.344.344,0,0,0,.16-.054c.4-.385.793-.775,1.192-1.165h.439l.546.593c-.053.059-.127.2-.206.212a6.947,6.947,0,0,1-.779.01l-.187.188c.093.074.18.2.28.212.28.035.559,0,.839.015a1.99,1.99,0,0,1,.8.064c.16.069.193.365.446.252a.3.3,0,0,0,.12-.36.3.3,0,0,1,.033-.188.608.608,0,0,1,.16-.163h.839c.113.049.2.143.16.242a.279.279,0,0,1-.353.153.366.366,0,0,0-.206,0,.282.282,0,0,0-.147.133.183.183,0,0,0,.167.262c1.665.015,3.33.01,4.962.01a.457.457,0,0,0,.226-.351c.1-.469.107-.469.473-.474h1.818l.34-.331a4.167,4.167,0,0,1,1.212-.079c.34.044.433.588,1.046.291l.313-.267.4-.025.866.81h.839l.326-.326c.566-.2,1.2.035,1.792-.119.373-.351.373-.351.793.044,1.332,0,2.711,0,4.1-.01.08,0,.16-.148.24-.227l-.579-.578-.433.4H147l-.306-.306a1.764,1.764,0,0,0-.38-.089c-1.106-.01-2.218,0-3.33,0-.207,0-.406-.02-.586-.03l-.333-.326a7.68,7.68,0,0,0-1.618-.049c-.559-.02-1.112,0-1.672,0h-6.354l-.393-.39-.44.37-.433-.39h-7.077l-.446.41-.42-.03-.3-.291a1.927,1.927,0,0,0-.373-.089h-2.085a.6.6,0,0,1-.186-.049l-.326-.321c-.166-.01-.366-.035-.566-.035h-6.467c-.166,0-.266.138-.306.435-.04.336-.04.341-.586.39l-.453-.4-.4-.02-.453-.41h-.393l-.453-.41-.42.03-.293.291c-.06.03-.12.089-.173.084a10.666,10.666,0,0,1-1.638-.039c-.26-.474-.706-.346-1.1-.365-.333-.069-.433-.593-1.039-.291l-.32.286h-1.232a.432.432,0,0,1-.213-.5c.027-.119.14-.306.213-.306,2.637-.015,5.281-.01,7.9-.01l.42.375h7.546c.053,0,.12-.084.14-.143.013-.03-.04-.119-.08-.133a1.774,1.774,0,0,0-.38-.094,4.319,4.319,0,0,1-1.012-.054l-.3-.3a.761.761,0,0,0-.187-.059h-6.087l-.473-.39h-2.859l-.466-.41-.433.385h-.819l-.473-.42h-2.051l-.34-.336a6.927,6.927,0,0,0-1.6-.054c-.486-.025-.972,0-1.458-.01a9.676,9.676,0,0,1-1.612-.039c-.273-.153-.153-.38-.18-.573a.5.5,0,0,1,.706-.119,2.718,2.718,0,0,1,.32.306h8.3l.46.41.453-.4h7.06c.373-.148.02-.681.46-.775l.766.755a4.832,4.832,0,0,0,.406-.351c.226-.247.539-.425.686-.8l-.206-.474-.453.4H116.55l-.313-.311a.714.714,0,0,0-.18-.079h-1.871a.625.625,0,0,0-.186.064l-.32.321-.44-.36-.433.385h-.4l-.453-.42h-2.9l-.3-.3c-.06-.035-.113-.094-.166-.094-1.245-.01-2.491,0-3.69,0-.433.41-.433.41-.779.049a3.409,3.409,0,0,1-.233-.286c.053-.054.1-.143.146-.143.766-.02,1.525-.025,2.284-.03.26,0,.433-.109.453-.291a.541.541,0,0,0-.2-.533c-.16-.128-.3-.277-.453-.42h-5.8L99.87,74.1a.692.692,0,0,0-.733.316.51.51,0,0,1-.18.074c-.353.01-.7,0-1.092,0l-.479-.39H95.375l-.48-.41-.433.385h-.4l-.46-.42h-3.73l-.313-.306a2.043,2.043,0,0,0-.373-.089c-.479-.01-.959,0-1.385,0-.42.4-.42.4-.819.025H84.944l-.5-.435c-.793,0-1.625.01-2.458-.01a.182.182,0,0,1-.167-.257c.027-.059.093-.138.146-.138.972-.01,1.945,0,2.9,0l.466.425h5.808l.32.311a4.225,4.225,0,0,0,1.412.079c.486.02.972,0,1.459,0h1.385l.346.346a.658.658,0,0,0,.18.064h7.3a1.62,1.62,0,0,0,.686-.652c-.14-.227-.36-.153-.56-.173l-.446.4-.446-.4-.419.03-.293.291a2.717,2.717,0,0,1-1.392.035c-.24-.138-.133-.36-.173-.667l.872-.672v-.889c.306-.331.673-.114,1-.183.373.153.087.662.453.82.193-.02.473.084.539-.158.053-.183-.206-.286-.32-.43.207-.415.593-.158.932-.242l.506.39h.739l.486.4c.42-.094.073-.627.426-.77l.44.385.593-.578c-.093-.079-.18-.212-.28-.217-.413-.025-.832-.01-1.252-.01s-.833.01-1.246,0a4.834,4.834,0,0,1-1.225-.054l-.3-.3a3.479,3.479,0,0,0-1.012-.049c-.353-.01-.7.015-1.046-.015-.093,0-.173-.143-.266-.222.053-.044.1-.133.153-.138.34-.02.679-.03,1.026-.039s.326,0,.466-.484a2.507,2.507,0,0,1,.2-.336c1.459,0,2.917-.01,4.376,0a.4.4,0,0,0,.42-.523c-.027-.114-.14-.286-.227-.291-.553-.025-1.106-.01-1.632-.01a.469.469,0,0,1-.207-.553.391.391,0,0,1,.26-.257,2.593,2.593,0,0,1,.619-.015.4.4,0,0,0,.366-.232l-.746-.563h-.646l-.486-.415-.846.78-.426-.37h-.839l-.32.311c-.047,0-.113.03-.146,0-.153-.119-.253-.351-.48-.331-.34.03-.479-.222-.686-.4l-.446.4H96.967c-.28-.272-.559-.553-.832-.82-.42.4-.42.4-.813.02h-3.3c-.16-.143-.3-.281-.46-.41-.133-.109-.206-.2-.16-.291.067-.148.187-.168.353-.148.207.02.413,0,.613,0l.44.4.753-.741a1.047,1.047,0,0,0,.879-.479c.386,0,.8.015,1.212,0a.223.223,0,0,0,.22-.237c-.007-.054-.087-.143-.14-.143-1.245-.015-2.5-.02-3.743-.025q-4.375,0-8.758-.01a.181.181,0,0,1-.167-.257c.027-.059.093-.138.147-.138q3.956-.007,7.906,0l.453-.41c.213,0,.419-.03.573.168a.978.978,0,0,0,.28.193l.306-.3a.656.656,0,0,1,.18-.064h3.956a.478.478,0,0,1,.18.079l.313.306.433-.365.426.375.426-.38h.839a1.963,1.963,0,0,0,.313.3,1.1,1.1,0,0,0,.38.089c.06,0,.16-.015.18-.054.213-.41.759-.247,1.012-.578a.379.379,0,0,1,.34-.188h.226l.446.39.426-.375.433.375.313-.311a2.076,2.076,0,0,1,.38-.079h5.841a3.533,3.533,0,0,0,.6-.064c.053-.01.1-.089.146-.138v-.41l-.606-.6h-1.259l-.433.385h-.4l-.46-.415h-1.638c-.18-.1-.213-.2-.107-.291.047-.044.107-.1.16-.1,1.245-.01,2.491,0,3.65,0,.24-.178.38-.351.559-.4.2-.054.4-.035.526-.227-.047-.049-.087-.128-.147-.138a3.456,3.456,0,0,0-.6-.059h-4.828l-.486-.41c-1.052,0-2.158,0-3.27-.01a.2.2,0,0,1-.193-.247c.013-.054.093-.138.14-.138,1.945-.01,3.889,0,5.827,0l.44-.4.426.375h.826c.26-.153.193-.375.207-.568-.107-.079-.207-.222-.306-.227-2.151-.01-4.309,0-6.46-.015-.107,0-.213-.133-.32-.2.113-.069.22-.193.333-.193.972-.015,1.945,0,2.917-.015a1.14,1.14,0,0,0,.38-.089c.04-.015.093-.1.08-.138-.02-.059-.093-.138-.14-.143-1.319-.015-2.631-.02-3.949-.039-.153,0-.293,0-.36.123s-.053.252-.107.365a2.013,2.013,0,0,1-.2.336H99.475c-.053,0-.113-.079-.147-.133-.053-.1.013-.2.166-.267a.367.367,0,0,1,.206,0,.276.276,0,0,0,.34-.173c.033-.094-.073-.217-.22-.237-.206-.02-.413.01-.546-.2l.393-.43c-.246-.346-.839-.109-1.012-.6h-.879l-.533-.647.3-.365c-.073-.074-.146-.222-.233-.222-.826-.02-1.652-.01-2.431-.01-.42.395-.42.395-.813.025H92.448l-.493-.425H89.464l-.426.39-.44-.4-.4.03-.493.42-.6-.207L87.811,54h.746l.473-.415.406-.02.446.41h1.661l.446-.41c.539-.025.539-.03.606-.365.107-.528.393-.612.826-.257a1.748,1.748,0,0,1,.147.148c.393-.128.579-.5.893-.751h1.665l.433.4h.413a.471.471,0,0,0,.2-.538c-.027-.1-.153-.262-.246-.267-.413-.03-.826-.015-1.206-.015l-.18-.178c.087-.079.18-.222.266-.222a16.5,16.5,0,0,1,2.471.054c.16.025.2.188.027.528-.033.138.08.084.12,0,.087-.173,0-.257-.173-.173-.087.039-.14.148-.193.237-.007.02.107.128.247-.064a1.339,1.339,0,0,1,.746-.183l.446-.41.4.025.459.375c.186-.38.553-.375.859-.479.053-.015.12-.1.113-.138s-.087-.138-.14-.138q-2.388-.037-4.775-.049a.451.451,0,0,1-.373-.1.736.736,0,0,1-.073-.148c.426-.346.926-.1,1.4-.168l.439-.4h.819l.433.385.426-.36h.846l.32.316c.293.03.346-.38.633-.341.34.049.46-.232.712-.415h6.62c.14,0,.286-.281.233-.494-.033-.118-.133-.311-.207-.311-2.018-.02-4.029-.015-6.047-.015H99.683c-.047-.158-.007-.311.147-.346a16.345,16.345,0,0,1,2.111-.079l.46-.38h.819l.419.375.433-.385h.819l.433.385h.846a1.609,1.609,0,0,1,.313-.3,2.454,2.454,0,0,1,.38-.094,2.44,2.44,0,0,0,.32-.2l-.393-.43c.06-.059.107-.148.16-.148.693-.01,1.379,0,2.058,0l.926-.864H112c.107-.1.2-.207.3-.3a.359.359,0,0,1,.126-.054c.166.123.326.336.493.341.32,0,.473.207.686.365a.457.457,0,0,0,.559-.03c.106-.089.2-.193.313-.3h1.672l.433.39h.4l.44-.4.433-.025a1.009,1.009,0,0,1,.846-.439c.053,0,.1-.089.147-.138-.1-.074-.193-.207-.293-.212-.413-.025-.832,0-1.252-.01a4.583,4.583,0,0,1-1.219-.064c-.193-.188-.346-.449-.812-.267l-.373.316h-1.239l-.433-.4h-.4l-.426.39h-5.861c-.047,0-.146-.128-.14-.133.067-.094.14-.232.227-.242a6.749,6.749,0,0,1,.766-.01l.346-.341a1.751,1.751,0,0,1,.8-.069c.346-.01.7.01,1.046,0a1.759,1.759,0,0,0,.813-.074l.479-.489.206-.667c.453,0,.872-.02,1.279.01a.192.192,0,0,1,.18.257c-.02.054-.093.094-.14.143h-.832c-.187.212-.173.37.033.41a2.707,2.707,0,0,0,.386.025l.426.365h1.259l.326-.316a11.419,11.419,0,0,1,1.652-.094l.493.4.42-.356a1.529,1.529,0,0,0,.393-.03c.153-.044.22-.163.173-.257-.027-.059-.093-.138-.147-.138-.972-.01-1.945,0-2.917-.015-.047,0-.12-.084-.14-.143a.19.19,0,0,1,.18-.252c.553-.025,1.106-.01,1.632-.01l.619-.612v-.4c.113-.074.22-.207.326-.212,1.459-.01,2.917,0,4.416,0l.466.375.426-.36.4-.02.446.415h1.644l.446.39.606-.593v-.4l.406-.439c-.393-.193-.393-.193-4.749-.193l-.466.41H116.8c-.326,0-.326,0-.44-.5-.02-.059-.047-.119-.067-.178-.087-.138-.2-.148-.36-.143-.766.01-1.532,0-2.291-.01-.053,0-.127-.079-.147-.138-.033-.1.067-.272.193-.242.393.079.553-.286.839-.38l.306.3a13.023,13.023,0,0,0,1.652.084l.486-.4.44.37h.813l.433-.385.433.375.313-.311a1.525,1.525,0,0,1,.972-.025l.313.306a13.087,13.087,0,0,0,1.672.054l.453.375.433-.375h.806l.453-.4c.353.143,0,.676.426.77l.426-.341.353.351a2.735,2.735,0,0,1,.42-.341c.166-.094.406.03.559-.153a.523.523,0,0,0,.04-.143l-.759-.751.38-.43c0-.178.113-.42-.113-.528s-.293.173-.44.267a1.2,1.2,0,0,0-.147.143l-.306.306-.446-.4H117l-.44-.4-.42.375h-5.814l-.646-.588c.273-.36.653-.158,1.012-.222l.46-.39h4.16l.433.4h.819l.446-.41.4.02.426.37h.846l.313-.316a.54.54,0,0,1,.18-.069h1.039c.113.074.22.138.326.217a1.239,1.239,0,0,1,.173.168h2.1l.426-.36.4-.025.446.41h1.652l.46-.42h1.652l.147-.153c-.067-.089-.147-.232-.233-.237-.826-.015-1.652-.01-2.424-.01-.579.528-.579.528-1.046.193v-.4a.442.442,0,0,1,.346-.207c.26-.025.546.094.792-.094.12-.094.093-.193-.12-.311h-.986c-.34,0-.353,0-.453.5a1,1,0,0,1-.06.173c-.053.054-.1.148-.153.148-.693.01-1.385,0-2.071,0l-.44.4-.306-.3a1.763,1.763,0,0,0-.38-.089c-1.252-.01-2.5,0-3.75-.015-.113,0-.226-.118-.366-.2l.673-.588h.792l.426.37.42-.38.433.385.306-.306a2.113,2.113,0,0,1,.38-.089c.619-.025,1.239-.035,1.858-.059a.214.214,0,0,0,.133-.143c.007-.04-.073-.128-.12-.138a3.539,3.539,0,0,0-.6-.069c-1.878,0-3.75,0-5.628-.01-.1,0-.286-.163-.273-.212a.3.3,0,0,1,.32-.193h3.25l.586-.82h1.858a1.134,1.134,0,0,1,.2.336c.133.5.133.509.666.454l.293-.291a1.748,1.748,0,0,1,.38-.084c.832-.01,1.665,0,2.5,0,.206,0,.406-.02.579-.03.386-.37.386-.37.786.01h.839l.44-.385h2.065l.44.4h.4l.44-.39c.433-.178.566.286.872.341l.3-.3c.286-.015.34.4.633.346.346-.049.46.252.679.4l.446-.4h4.569c.053,0,.127-.084.147-.143a.21.21,0,0,0-.206-.247c-.546-.03-1.1-.025-1.652-.049-.053,0-.1-.089-.16-.148.133-.143.28-.277.4-.43.033-.04.007-.133.007-.2H139.5l.44-.41h1.232l.433-.39.413.356a1.884,1.884,0,0,1,.506-.36c.187-.054.4-.03.526-.217-.1-.069-.2-.193-.313-.2a15.523,15.523,0,0,1-2.031-.079c-.16-.035-.2-.188-.147-.341.067,0,.16.025.2-.01.16-.123.306-.272.46-.415h5.395a1.923,1.923,0,0,1,.313-.3,1.042,1.042,0,0,1,.373-.1.23.23,0,0,1,.186.049c.2.316.553.331.859.439.12.044.2.188.32.306h7.1l.446-.39c.306,0,.653-.01,1,0a.362.362,0,0,0,.366-.128c.067-.094.013-.183-.133-.291s-.286-.262-.42-.38l-.393.321-.666-.548c.426-.207.426-.207,2.7-.207l.46.4h4.136l.46.425h4.56l.6.583c-.093.079-.18.222-.266.222-1.112.02-2.224.01-3.337.015a2.018,2.018,0,0,0-.806.054c-.053.049-.133.094-.14.148s.08.128.133.138a6.237,6.237,0,0,0,.806.064c.832.01,1.665,0,2.544,0,.127.109.28.237.426.37s.293.291.446.444h1.252l.446-.41h2.484c.173-.1.207-.2.107-.3l-.293-.291c.087-.079.173-.207.273-.222a7.714,7.714,0,0,0,1.219-.064l.333-.326.473.3a6.53,6.53,0,0,1,.753.01c.08.01.146.153.22.237l-.746.731a.544.544,0,0,0,.053.558.4.4,0,0,0,.373.109,3.925,3.925,0,0,1,.42,0,1.34,1.34,0,0,0,.193-.04c.047-.049.133-.094.14-.143.013-.272.007-.543.007-.775a.551.551,0,0,1,.526-.281c.226,0,.326-.222.48-.346a.218.218,0,0,1,.147.035.368.368,0,0,1,.127.36.363.363,0,0,1-.187.336.886.886,0,0,1-.193.035c-.46.089-.486.128-.26.4.306.375.32.425-.02.83l-.4.015-.426.375c-.739.02-1.425.039-2.111.069-.053,0-.126.084-.14.143-.013.035.06.118.107.133a1.3,1.3,0,0,0,.386.079,6.706,6.706,0,0,1,1.412.069c.24.143.127.375.166.563a1.336,1.336,0,0,0,.333.188,2.309,2.309,0,0,0,.413.01c.293.01.519.128.46.237a.354.354,0,0,1-.346.173h-3.556l-.453-.415h-.4l-.44.4c-.206-.173-.346-.444-.679-.4a.328.328,0,0,1-.333-.193c-.193-.331-.659-.109-.866-.43a3.053,3.053,0,0,0-.4-.435c-.04-.563-.047-.568-.593-.583-.38.43-.38.464.12.968a1.119,1.119,0,0,1-1.039.731c-.053,0-.1.094-.146.138.1.074.2.2.313.207.34.025.693.01,1.079.01l.48.385h1.6l.48.415.426-.385h.406l.466.42h6.64c.6.543.633.543,1.2.02h.853l.4.331c.346-.281.346-.291.04-.775-1.245,0-2.491,0-3.743-.01a.179.179,0,0,1-.153-.267c.033-.054.1-.128.153-.128.413-.01.826,0,1.219,0l.44-.4h1.678l.326.326a1.44,1.44,0,0,0,.966,0c.153-.049.2-.188.153-.435-.02-.035-.02.074,0,.084a.265.265,0,0,0,.32-.1c.087-.1.073-.183-.08-.257-.027-.015-.093.02-.127.049A.3.3,0,0,0,183.511,36.169Zm-56.257,4.365a.5.5,0,0,0,.186.237c.173.084.26,0,.173-.173a.518.518,0,0,0-.24-.183c-.02-.01-.133.1.433.37-.053-.02-.166-.025-.173,0a.266.266,0,0,0,.1.321c.1.084.186.069.266-.084.013-.025-.027-.089-.053-.123s-.086-.1-.692-.365ZM159.483,76.89a.545.545,0,0,0,.246-.188c.087-.173,0-.257-.173-.173-.087.039-.14.153-.193.242-.007.015.107.128.38-.43-.02.054-.027.168,0,.173a.26.26,0,0,0,.32-.1c.087-.094.073-.178-.08-.257-.027-.015-.093.025-.127.054S159.762,76.288,159.483,76.89ZM436.652,75.7c.326,0,.659.02.986-.01.08,0,.16-.143.22-.232a.274.274,0,0,0-.133-.128,1.564,1.564,0,0,0-.939.039.246.246,0,0,0-.133.331h-.586a.3.3,0,0,0-.147.1c-.033.035-.073.1-.06.133a.221.221,0,0,0,.133.133C436.439,76.189,436.565,76.11,436.652,75.7Zm-7.046-6.819a.652.652,0,0,0,.186.242c.18.084.266,0,.18-.173a.545.545,0,0,0-.246-.188c-.013-.01-.127.1.253.365a.246.246,0,0,0,.133.336,3.374,3.374,0,0,0,1.352.044c.273-.425.28-.43-.053-.785h-.393l-.433.4a2.086,2.086,0,0,1-.979-.237Zm-295.723-28.1a.243.243,0,0,0-.14-.336,3.2,3.2,0,0,0-1.352-.04c-.053,0-.1.089-.146.138.08.074.153.222.233.227.466.02.939.01,1.4,0,.067.252-.126.548.226.825h2.379a.363.363,0,0,0,.18-.069.747.747,0,0,0,.133-.138l-.6-.593-.446.385h-1.219a1.633,1.633,0,0,0-.648-.4ZM416.852,80.633h4.562l.46-.415h2.883l.453-.41c.44.153.579-.3.879-.41.453-.074.966.212,1.372-.188-.1-.074-.193-.212-.293-.212-.9-.015-1.8-.01-2.7,0a.625.625,0,0,0-.18.054l-.293.3a5.032,5.032,0,0,1-1.219.054c-.486.01-.972-.01-1.452,0a4.148,4.148,0,0,0-1.212.064l-.346.341h-3.25c-.06,0-.12.054-.193.089l-.559.588.186.548h.466ZM413.928,83.1c.273,0,.546.01.819,0,.053,0,.12-.079.147-.138a.182.182,0,0,0-.166-.257c-.966-.02-1.931-.01-2.884-.01l-.46.42h-3.3l-.48.425h-4.136c-.047,0-.113.084-.14.138-.013.035.027.1.06.143.153.168.386.064.526.128l.506.42c.4-.109.813.044,1.212-.094l.3-.291a7.168,7.168,0,0,1,1.419-.064,9.276,9.276,0,0,0,1.618-.049l.306-.306a1.558,1.558,0,0,1,.972.035l.313.306.446-.385h2.464ZM220.415,35.028c.413-.4.413-.4.812-.02h.839l.426-.37.433.39h3.31l.446-.415a2.235,2.235,0,0,0,.406-.01c.06,0,.12-.079.147-.138a.191.191,0,0,0-.18-.252q-4.555-.015-9.111,0a.187.187,0,0,0-.173.257c.027.059.093.133.146.138a2.793,2.793,0,0,0,.406.01l.433.4h.819l.446-.38Zm-.42.82h-.826l-.453-.42H215l-.433-.37-.46.38c-.386,0-.733-.015-1.079.01-.113.01-.22.128-.326.2.44.484,1.066,0,1.538.286l.32.311h4.962l.46.4C220.3,36.3,220.3,36.3,219.995,35.848Zm212.288,6.577c.273,0,.546,0,.819-.01.053,0,.12-.079.146-.138a.191.191,0,0,0-.173-.257c-.966-.02-1.931-.01-2.884-.01l-.44-.4h-1.712l-.173.5a1.651,1.651,0,0,0,.7.672c.053-.049.1-.1.153-.143.366-.306.44-.306.852,0,.386.286.48.286.852-.039a1.789,1.789,0,0,0,.16-.158h.839l.426.38ZM345.13,34.2c-.22-.123-.24-.212-.12-.316a.463.463,0,0,1,.373-.1.276.276,0,0,0,.32-.188c.013-.044-.18-.212-.266-.207-.326.03-.493-.168-.686-.355-.02-.02-.093.01-.14.015l-.293.286c-.326.193-.813-.222-1.046.272l.353.415c-.506.538-.506.538-.173,1h1.231l.453-.42h.813c.06-.054.133-.094.147-.153a.209.209,0,0,0-.2-.242,6.731,6.731,0,0,0-.766-.007Zm88.8,32.46h-4.176l-.559.588c.06.069.127.217.206.222.413.025.819.01,1.172.01l.493-.41h1.9a.889.889,0,0,1,.186.054,1.2,1.2,0,0,0,.3.281.6.6,0,0,0,.38.069c.313-.074.453-.514.866-.41.047.01.12-.054.167-.094a.374.374,0,0,0,.113-.365c-.013-.138-.047-.277-.193-.326a1.388,1.388,0,0,0-.413-.03ZM187.461,84.331l.46-.425h1.645c.053,0,.1-.094.153-.148-.067-.079-.133-.222-.22-.232a6.954,6.954,0,0,0-.779-.015c-.273-.272-.52-.514-.766-.751a.511.511,0,0,0-.559.01,4.1,4.1,0,0,0-.34.331H185.67a1.234,1.234,0,0,0-.373.089c-.04.015-.1.1-.087.138.02.054.087.138.14.138.546.025,1.092.02,1.638.049.087.01.24.188.22.227-.073.163-.36.237-.286.439C187.008,84.43,187.274,84.3,187.461,84.331Zm-1.878,2.054h-3.117c-.047,0-.113.079-.14.138a.186.186,0,0,0,.167.257c2.071.015,4.149.01,6.22,0,.053,0,.12-.079.146-.138a.187.187,0,0,0-.166-.257C187.654,86.375,186.615,86.385,185.583,86.385ZM382.653,30.1h1.23l.446-.41h2.478c.047,0,.113-.079.147-.138a.183.183,0,0,0-.167-.257c-1.372-.02-2.751-.015-4.123,0-.08,0-.193.183-.22.291A.453.453,0,0,0,382.653,30.1Zm-8.778-.41h-2.9c-.047,0-.113.079-.14.138a.18.18,0,0,0,.16.257c1.938.015,3.869.015,5.808,0,.047,0,.113-.079.147-.133a.187.187,0,0,0-.167-.262c-.97-.01-1.936,0-2.908,0Zm45.488,53h2.89c.047,0,.113-.079.146-.133a.18.18,0,0,0-.153-.262c-1.379-.02-2.751-.015-4.129,0-.08,0-.2.178-.226.286a.468.468,0,0,0,.206.523h.819ZM149.093,34.2h-.826l-.586.588c.073.074.146.212.233.227.2.03.4,0,.546.193a.88.88,0,0,0,.266.158l.439-.341h.718c.133.114.273.252.433.37a.558.558,0,0,0,.559-.064.448.448,0,0,0,.107-.37.435.435,0,0,0-.213-.341h-1.225Zm19.6,55.465.433.4.44-.4.4.03.426.37h1.231a.383.383,0,0,0,.206-.341c.013-.227-.12-.469-.26-.469-1.092,0-2.178-.01-3.27.015a.178.178,0,0,0-.153.257c.033.059.093.128.147.133a2.709,2.709,0,0,0,.4.006ZM177.437,48.2a4.971,4.971,0,0,1-.373.36c-.133.109-.206.2-.166.291.067.148.193.158.353.153.486-.015.972,0,1.452,0l.44.395.626-.612L179.1,48.2ZM169.518,83.9c.12-.109.266-.252.42-.375.127-.109.2-.2.16-.291-.073-.143-.193-.148-.353-.148-1.026.01-2.051,0-3.077,0a1.389,1.389,0,0,0-.406.01c-.093.03-.16.148-.22.242-.013.01.087.128.133.133.34.015.679.01,1.019.03a3.085,3.085,0,0,1,1.189.09l.306.306ZM231.27,35.028c-.073.1-.186.193-.213.3a.385.385,0,0,0,.406.518h2.857c.153,0,.28,0,.366-.1.04-.035.087-.1.073-.138a.24.24,0,0,0-.14-.138,2.609,2.609,0,0,0-.413-.035l-.44-.4-.433.4h-.813l-.433-.41ZM117.817,49.407l-.613.627.613.6h.833l.44-.4a1.015,1.015,0,0,1,.213,0,.271.271,0,0,0,.34-.163.194.194,0,0,0-.2-.237c-.42.074-.573-.306-.859-.425ZM169.6,85.121c-.186-.375-.646-.356-.879-.79-.673,0-1.359-.01-2.051.01-.073,0-.146.153-.2.217l.546.588h.846l.433-.375.42.351ZM101.96,56.4a5.558,5.558,0,0,1,.646,0c.16.02.28,0,.346-.148.04-.094-.027-.183-.153-.286-.153-.123-.293-.267-.426-.39h-1.232c-.333.252-.187.612-.193.923-.007.1.133.2.206.306h.446ZM328.846,31.33H327.2l-.453.41a2.38,2.38,0,0,0-.373,0c-.2.03-.213.2-.04.4h1.648l.433-.39.42.38C329.139,31.75,329.139,31.75,328.846,31.33ZM185.8,83.921h-2.085c-.053,0-.113.084-.147.138a.139.139,0,0,0,.027.143c.193.163.313.41.579.489.566-.514.593-.514,1.159,0,.353-.044.786.3,1.052-.193ZM211.663,86.8c-.686,0-1.379-.015-2.065.01a.188.188,0,0,0-.167.262c.033.054.1.133.147.133,1.239.01,2.484.015,3.723,0a.177.177,0,0,0,.16-.257c-.027-.059-.093-.138-.14-.138C212.769,86.79,212.216,86.8,211.663,86.8Zm-29.2-25.883h-1.325a4.053,4.053,0,0,1-.346.4c-.126.114-.186.193-.126.286a.335.335,0,0,0,.353.133c.473-.015.952,0,1.432,0,.308-.4.308-.4.015-.82Zm139.73-29.178a2.7,2.7,0,0,0,.4,0,.244.244,0,0,0,.14-.138.188.188,0,0,0-.173-.252c-.952-.02-1.911-.02-2.864,0a.187.187,0,0,0-.166.257c.027.054.093.138.14.138.546.01,1.092,0,1.652,0l.433.4Zm-93.866,6.577c-.553,0-1.1,0-1.652.01-.053,0-.113.079-.146.133a.19.19,0,0,0,.166.262c1.106.015,2.2.01,3.31,0,.047,0,.113-.079.14-.133a.181.181,0,0,0-.167-.257C229.432,38.3,228.883,38.312,228.327,38.312Zm-2.144.341c-.186-.183-.233-.267-.286-.272a18.8,18.8,0,0,0-3.457,0c-.053,0-.1.089-.146.138.438.252.738.267,3.889.134ZM160.149,31.74H158.73c-.053,0-.1.074-.153.114-.107.37-.226.746.087,1.086l.466.035c.246-.386.765-.593,1.018-1.235ZM346.788,33.8c.473,0,.952-.01,1.425,0,.16,0,.3,0,.353-.128.093-.237-.167-.291-.266-.425a2.181,2.181,0,0,0-.293-.272h-1.224C346.483,33.384,346.483,33.389,346.788,33.8ZM174.54,40.783c-.273.42-.273.42.013.82h.813l.446-.42a2.793,2.793,0,0,0,.406,0,.249.249,0,0,0,.14-.138.2.2,0,0,0-.186-.247c-.539-.032-1.089-.017-1.632-.017Zm-65.957,16.84.713-.612a2.69,2.69,0,0,0-2.1-.01c.246.212.4.518.732.622ZM225.469,36.258c-.626,0-1.172,0-1.718.01-.047,0-.113.079-.14.138-.047.089.007.207.166.257a1.23,1.23,0,0,0,.38.01l.446.4h.839C225.656,36.865,225.7,36.638,225.469,36.258Zm22.914,2.054a3.11,3.11,0,0,0-.44.01c-.053,0-.113.074-.146.133a.176.176,0,0,0,.153.257,16.077,16.077,0,0,0,1.618,0c.067,0,.133-.153.2-.237l-.579-.573h-.453Zm-27.766-1.847c.113.069.213.193.326.2,1.632.044,1.765.03,2.171-.188-.1-.074-.2-.2-.306-.207a15.308,15.308,0,0,1-1.539-.03c-.233-.035-.293-.39-.506-.311-.235.092-.115.349-.142.536Zm130.53-3.081c.479,0,.966.02,1.439-.01a.186.186,0,0,0,.167-.257c-.033-.059-.093-.138-.147-.138-.819-.01-1.645-.02-2.471,0a.178.178,0,0,0-.16.257c.027.059.087.133.14.138.35.015.689.01,1.036.01ZM436.1,68.8c.18.178.226.262.28.267a10.606,10.606,0,0,0,2.624,0c.06,0,.1-.089.147-.138C438.73,68.679,438.73,68.679,436.1,68.8ZM111.543,67.484l-.373-.839-.593.588a1.723,1.723,0,0,0,.619.662H112.4c.053-.054.12-.089.147-.148.04-.094-.033-.188-.173-.262Zm1.485-19.094V49c0,.064-.027.143,0,.2.08.153.193.207.28.143.153-.114.246-.331.466-.331a.536.536,0,0,0,.506-.237c-.027-.183.073-.4-.266-.593-.246.152-.679-.233-.985.212Zm-9.81,16.63.446.41c.213-.01.433.049.566-.173a8.325,8.325,0,0,0-.953-1.012.588.588,0,0,0-.146.054.574.574,0,0,0-.146.143c-.113.138-.373.227-.306.43C102.759,65.119,103.032,65,103.218,65.02Zm25.865,8.216c-.406,0-.819-.02-1.232.01a.184.184,0,0,0-.16.262c.033.054.093.133.147.133.686.01,1.372.02,2.051,0a.185.185,0,0,0,.167-.257c-.033-.059-.093-.133-.147-.138C129.639,73.231,129.366,73.236,129.083,73.236Zm-1.672-23.829c-.293.42-.293.42.013.82.406,0,.813.025,1.219-.01a.185.185,0,0,0,.16-.257c-.027-.054-.087-.128-.14-.133a2.8,2.8,0,0,0-.406-.01l-.439-.41ZM213.948,34a.491.491,0,0,0-.686-.133,2.553,2.553,0,0,0-.4.326c-.386.054-.746-.114-.992.222l.14.138a2.523,2.523,0,0,0,.38.059,3.871,3.871,0,0,0,.986-.044ZM143.065,81.042a10.137,10.137,0,0,0-1.026.01.187.187,0,0,0-.166.257c.027.059.087.138.14.138.546.01,1.092.025,1.638,0a.187.187,0,0,0,.173-.252c-.033-.059-.093-.138-.147-.143C143.483,81.033,143.272,81.042,143.065,81.042Zm-3.343,5.343a10.151,10.151,0,0,0-1.026.01.184.184,0,0,0-.16.262c.033.054.093.133.147.133.546.01,1.092.025,1.638,0a.183.183,0,0,0,.16-.262c-.033-.054-.093-.128-.147-.133C140.135,86.375,139.928,86.385,139.722,86.385ZM342.4,34.416c-.44-.286-.533-.281-.839,0-.14.128-.3.252-.446.37.3.37.659.222.972.232.107,0,.213-.128.313-.2Zm-202.457.18c-.306.439-.306.444-.007.844h1.219c.146-.079.213-.173.167-.267-.033-.059-.093-.133-.14-.138-.273-.015-.546,0-.859,0Zm84.429,1.254a10.113,10.113,0,0,0,1.026-.01.181.181,0,0,0,.16-.262c-.033-.054-.093-.133-.14-.133-.553-.01-1.1-.025-1.645,0a.183.183,0,0,0-.16.262c.033.054.093.128.147.133.2.018.412.008.612.008Zm-89.464,2.464a3.1,3.1,0,0,0,.433,0c.053,0,.107-.079.14-.133a.187.187,0,0,0-.153-.262c-.4-.03-.806-.01-1.212-.01-.14.074-.233.188-.173.257.173.2.373.38.579.583Zm-7.153,10.275c.373,0,.646,0,.912-.01.047,0,.107-.079.14-.133.047-.089,0-.212-.16-.262a1.492,1.492,0,0,0-.426-.01l-.373-.41a1.217,1.217,0,0,1-.233,0,.264.264,0,0,0-.34.143c-.047.089.027.168.147.281a4.3,4.3,0,0,1,.333.4ZM104.9,52.282h1.225c.3-.385.3-.385.027-.815l-.439.4c-.266,0-.54,0-.813.01-.047,0-.107.074-.14.128-.061.091-.007.191.139.276Zm183.7-17.46c.107.069.206.178.32.2a1.92,1.92,0,0,0,.606,0,1.131,1.131,0,0,0,.326-.193v-.38a.5.5,0,0,0-.679-.188ZM177.864,83.506c-.413,0-.819,0-1.232.01-.047,0-.107.074-.14.128-.06.094,0,.193.153.277.406,0,.812,0,1.226-.01.047,0,.107-.074.14-.133C178.07,83.689,178.01,83.59,177.864,83.506ZM425.2,82.277h1.232c.047,0,.107-.084.14-.138.047-.1-.02-.193-.166-.267h-1.225c-.053,0-.113.079-.147.138C424.99,82.1,425.057,82.2,425.2,82.277Zm-228.119-.825c-.146.079-.213.173-.166.267.033.059.093.138.14.138.413.015.819.01,1.232.01.147-.079.213-.173.16-.267-.027-.059-.087-.138-.14-.138-.406-.015-.819-.01-1.227-.01ZM104.47,64.229c.28-.306.313-.583.007-.854a6.359,6.359,0,0,0-.813.01.189.189,0,0,0-.16.257c.027.054.087.128.14.138a3.082,3.082,0,0,0,.433,0ZM440.608,42.415l-.579.607c-.013.044.033.133.173.222.266,0,.533.015.8-.01.073-.01.127-.158.186-.242ZM218.3,37.5h-1.225c-.047,0-.113.084-.14.138-.047.094.02.188.167.267h1.225c.047,0,.113-.079.14-.138C218.516,37.665,218.45,37.571,218.3,37.5Zm11.5-.207-.566-.558c-.313.094-.466.365-.666.578.186.267.466.168.719.188a.528.528,0,0,0,.509-.212Zm32.661-.281c-.18-.173-.22-.252-.28-.267a2.8,2.8,0,0,0-1.372,0c-.06.015-.1.094-.153.148.482.327,1.008.174,1.8.114ZM229.57,35.443h-1.225c-.053,0-.113.084-.14.138-.047.094.013.188.16.267H229.6c.047,0,.113-.079.14-.138.046-.1-.025-.193-.172-.272Zm-69.231,0h-1.225c-.047,0-.113.084-.14.138-.047.094.02.188.167.267h1.225c.047,0,.113-.079.14-.138.042-.1-.023-.193-.171-.272Zm.46-3.288c-.146.084-.206.183-.153.272.033.059.093.133.147.133.406.015.819.01,1.225.01.147-.084.206-.183.153-.277-.033-.054-.093-.128-.147-.133-.411-.015-.824-.01-1.23-.01Zm170.163-.41c-.147.079-.213.173-.166.267.027.059.093.138.14.138.406.01.819,0,1.226,0,.147-.079.213-.173.166-.267-.027-.054-.093-.133-.14-.138-.418-.01-.824,0-1.23,0ZM150.564,87a.518.518,0,0,0,.506.207c.253-.02.539.079.719-.188-.2-.212-.353-.479-.659-.578Zm18.948-.612h-1.225c-.053,0-.113.079-.14.138-.047.094.013.188.16.267h1.232c.046,0,.107-.084.14-.138.046-.093-.02-.187-.167-.266Zm12.121.412a.817.817,0,0,0,.14-.143c.047-.094-.02-.188-.167-.267h-.813a.676.676,0,0,0-.14.143c-.047.094.02.188.16.267Zm-26.707-2.874c-.266,0-.54-.01-.813,0-.047,0-.107.074-.14.128-.06.094-.007.188.14.277h.813c.146-.089.206-.183.146-.277a.632.632,0,0,0-.145-.129Zm-3.943.2a.544.544,0,0,0,.519.207c.26-.015.539.064.726-.207a.561.561,0,0,0-.526-.207c-.259.016-.538-.058-.719.209Zm24.6-.41a.544.544,0,0,0-.52-.207c-.26.015-.546-.059-.726.207a.55.55,0,0,0,.52.207c.256-.013.543.061.726-.205ZM427.062,81.66a.55.55,0,0,0,.519.207c.26-.015.546.059.726-.207a.55.55,0,0,0-.52-.207C427.528,81.467,427.241,81.4,427.062,81.66Zm-8.139-.207h-.813c-.147.084-.206.178-.16.272.027.054.093.094.14.143h.813c.147-.084.213-.178.166-.272a.8.8,0,0,0-.146-.144Zm10.636-1.028a.555.555,0,0,0-.526-.207c-.253.015-.539-.059-.719.207a.534.534,0,0,0,.519.207C429.093,80.618,429.383,80.7,429.559,80.425ZM127,75.7a.8.8,0,0,0-.147.143c-.047.094.02.188.167.272h.813a1.033,1.033,0,0,0,.14-.143c.047-.094-.02-.188-.16-.272Zm307.566-7.6a.506.506,0,0,0-.833,0l.133.138a.683.683,0,0,0,.147.138c.14.094.193.36.413.262S434.541,68.284,434.567,68.1ZM124.483,44.889h-.813c-.147.089-.2.183-.147.272a1.151,1.151,0,0,0,.147.138h.812c.053,0,.113-.079.146-.133C124.69,45.072,124.63,44.978,124.483,44.889Zm86.467-9.362a.624.624,0,0,0,.606.326c.26-.015.54.059.726-.212-.326-.371-.725-.178-1.331-.114Zm79.527-.909c-.047.044-.113.084-.14.143-.047.089.013.188.16.267h.813c.047-.049.113-.089.14-.143.047-.094-.013-.188-.16-.267ZM231.383,34.3a.629.629,0,0,0,.606.326c.26-.015.546.059.726-.212C232.389,34.036,231.99,34.229,231.383,34.3Zm-38.368-.41a.629.629,0,0,0,.606.326c.26-.015.546.059.726-.212-.326-.374-.726-.181-1.332-.117Zm-6.354.346a4.563,4.563,0,0,1,.393-.43c.127-.114.186-.193.133-.281-.14-.212-.36-.109-.546-.133-.306.263-.306.534.021.841Zm155.322-.645a.536.536,0,0,0-.52-.2c-.26.01-.546-.064-.726.207a.536.536,0,0,0,.52.2C341.514,33.784,341.8,33.858,341.983,33.587Zm46.081-3.9.573-.558c-.053-.39-.353-.232-.593-.262a.513.513,0,0,0,.016.819Zm40.869,49.3c.047-.044.113-.084.14-.143.053-.094-.013-.188-.16-.267H428.1c-.047.044-.113.084-.14.143-.047.094.013.188.16.267Zm-35.664,7.4a.536.536,0,0,0,.2,0c.153-.069.206-.173.16-.267a.309.309,0,0,0-.146-.133.536.536,0,0,0-.2,0c-.253,0-.426.128-.353.267a.26.26,0,0,0,.339.13Zm-263.976-.207a.506.506,0,0,0-.832,0,.5.5,0,0,0,.831,0Zm35.438-1.847a.5.5,0,0,0-.193,0,.32.32,0,0,0-.146.138c-.047.089.007.193.16.262.053.025.133-.01.193.01a.276.276,0,0,0,.346-.148c.072-.137-.1-.265-.361-.265Zm31.289-.617a.5.5,0,1,0,.416-.225.5.5,0,0,0-.416.225Zm-22.1,0a.288.288,0,1,1-.006,0Zm-2.018.064c.047.049.087.128.14.133a1.4,1.4,0,0,0,.406,0c.053,0,.107-.074.14-.123a.167.167,0,0,0,.013-.138c-.093-.207-.546-.212-.686-.01-.032.031-.019.091-.019.135Zm243.97-.82c.047.044.087.123.14.133a1.355,1.355,0,0,0,.4,0c.06,0,.113-.074.147-.128a.187.187,0,0,0,.013-.133c-.093-.207-.546-.217-.686-.01-.033.032-.02.086-.02.135Zm10.77-2.121a.506.506,0,0,0,.833,0,.5.5,0,0,0-.833,0Zm-289.358-.069c0,.049-.013.1.013.138a.459.459,0,0,0,.686,0,.167.167,0,0,0-.013-.138c-.14-.212-.592-.2-.687,0Zm-30.1-6.918a.506.506,0,1,0,.419-.223.507.507,0,0,0-.419.223Zm-2.085,0a.5.5,0,1,0,.418-.22.5.5,0,0,0-.418.22Zm12.927-2.464a.5.5,0,0,0-.832,0,.506.506,0,0,0,.836,0Zm-15.438-5.55c.067,0,.147.025.2,0,.153-.074.206-.178.16-.267a.348.348,0,0,0-.147-.138.665.665,0,0,0-.2,0c-.253,0-.426.128-.353.272a.254.254,0,0,0,.344.133Zm-5.761-2.321c0,.044-.013.1.013.138.133.2.593.2.686-.01a.168.168,0,0,0-.013-.138.451.451,0,0,0-.682.011Zm1.25-8.222c.007.049-.007.109.013.138.14.207.6.2.686,0a.167.167,0,0,0-.007-.138.459.459,0,0,0-.692,0ZM435.813,43.65c0,.064-.02.143.007.193.073.148.18.207.273.153a.284.284,0,0,0,.133-.138.464.464,0,0,0,.007-.193c0-.257-.133-.425-.273-.355a.259.259,0,0,0-.147.34Zm-303.95-2.321c0,.049-.013.1.013.138.133.207.593.2.686-.01a.186.186,0,0,0-.013-.133C132.409,41.117,131.956,41.126,131.863,41.329ZM129.7,39.754a.512.512,0,0,0,.839,0,.512.512,0,0,0-.839,0Zm102.244-2.4c.047.044.093.123.147.133a1.354,1.354,0,0,0,.4,0,.269.269,0,0,0,.14-.128.168.168,0,0,0,.013-.138c-.093-.207-.546-.217-.686,0-.02.024-.007.084-.013.133Zm29.61-2.187c0,.049-.013.1.013.138a.448.448,0,0,0,.686-.01.169.169,0,0,0-.013-.138c-.139-.2-.592-.193-.685.01Zm-53.8.133c.047.044.093.123.146.133a1.354,1.354,0,0,0,.4,0,.269.269,0,0,0,.14-.128.146.146,0,0,0,.013-.138c-.093-.207-.546-.212-.686-.01a.522.522,0,0,0-.011.139Zm-64.3.138a.536.536,0,0,0,.2,0c.146-.069.206-.173.153-.262a.278.278,0,0,0-.14-.138.54.54,0,0,0-.2,0c-.26,0-.426.128-.36.272a.27.27,0,0,0,.353.128Zm21.279-.815a.656.656,0,0,0,0,.2.362.362,0,0,0,.14.138c.093.049.2,0,.266-.153.027-.054-.007-.133.013-.2a.269.269,0,0,0-.146-.336c-.141-.076-.268.1-.268.352Zm252.714,0a.536.536,0,0,0,.2,0c.147-.074.206-.178.16-.267a.347.347,0,0,0-.147-.138.665.665,0,0,0-.2,0c-.253,0-.426.133-.353.272a.258.258,0,0,0,.346.129Zm-243.9-1.373c.053.044.093.123.146.133a1.546,1.546,0,0,0,.4,0c.053-.01.107-.074.146-.128a.166.166,0,0,0,.007-.138c-.087-.212-.546-.217-.686-.01-.01.03,0,.089,0,.139Zm-27.586-.069a.512.512,0,0,0-.839,0,.512.512,0,0,0,.849,0Zm-1.678-.2a.54.54,0,0,0-.2,0,.34.34,0,0,0-.14.138c-.053.089.007.193.153.262.053.025.14-.01.2,0a.27.27,0,0,0,.346-.143c.076-.135-.09-.264-.35-.264ZM380.348,29.9a.5.5,0,0,0-.833,0,.5.5,0,0,0,.833,0ZM158.483,90.286a.855.855,0,0,0,.14.138c.087.054.193,0,.273-.143.007-.015-.08-.094-.133-.128C158.676,90.1,158.576,90.152,158.483,90.286Zm43.024-.341.14.128c.147-.079.193-.178.14-.262-.033-.054-.12-.143-.133-.133C201.507,89.757,201.46,89.856,201.507,89.945Zm196.7-3.012-.133-.133c-.147.084-.193.183-.14.267.033.054.113.143.133.133.15-.079.19-.178.143-.267Zm-219.641-.41c-.047.089,0,.188.146.267a.474.474,0,0,0,.133-.133c.053-.084.007-.188-.14-.267Zm-37.116,0c-.047.089,0,.188.147.267a.474.474,0,0,0,.133-.133c.053-.084,0-.188-.14-.267Zm-7.646,0-.133-.133c-.147.079-.193.183-.14.267.033.054.113.138.133.133.15-.079.19-.178.144-.267Zm268.369-2.261c.093.044.193,0,.273-.143.007-.015-.08-.094-.133-.128-.087-.054-.186,0-.273.138Zm-265.861-.207-.133-.128c-.147.079-.2.178-.14.267.033.054.113.138.133.128.14-.08.187-.174.14-.268Zm-1.6.069a1.112,1.112,0,0,0,.14.138c.087.049.186,0,.266-.143.013-.015-.073-.094-.127-.128-.091-.055-.184,0-.278.133Zm64.3-2.4.133.128c.147-.079.193-.178.14-.267-.033-.049-.113-.138-.133-.128-.149.079-.189.173-.143.267Zm224.156-.617c-.093-.044-.193,0-.273.143-.007.015.08.094.133.128.093.054.193,0,.273-.138ZM438.8,74.2c-.047.094,0,.188.146.267.013.01.1-.074.133-.128.053-.089,0-.188-.14-.267Zm-7.506,0c-.047.094,0,.188.147.267.013.01.093-.074.133-.128.053-.089,0-.188-.146-.267Zm-1.8-1.916c.047-.094,0-.188-.147-.267-.013-.01-.093.079-.133.133-.053.084,0,.183.146.262Zm-309.165-.686a.744.744,0,0,0,.133-.138c.053-.084.007-.183-.14-.262-.013-.01-.1.074-.133.128-.057.087-.009.181.136.274Zm308.6-2.056a.791.791,0,0,0,.14-.138c.053-.084.007-.188-.14-.262-.02-.01-.1.074-.133.128C428.74,69.355,428.793,69.449,428.933,69.538ZM114,67.553l-.133.133c.08.143.18.193.273.138.053-.035.14-.114.133-.128C114.194,67.553,114.094,67.508,114,67.553Zm4.729-10.68c-.093-.049-.193,0-.273.138-.007.02.08.1.133.133.087.054.186,0,.266-.138ZM132.556,50.1c.047-.094.007-.188-.14-.267-.013-.01-.1.074-.133.128-.053.089-.007.188.14.267Zm-12.1-.138-.133-.128c-.147.079-.193.178-.14.267.033.049.12.138.133.128.147-.082.187-.176.14-.27Zm-9.377-.479-.133.133c.08.143.18.193.266.138.053-.035.147-.114.133-.133-.08-.146-.173-.185-.267-.141ZM120.6,45.85c-.047.089,0,.188.147.267.013.01.1-.079.133-.133.053-.084.007-.183-.14-.262Zm11.542-6.165-.133-.128c-.147.074-.2.178-.147.262.04.054.12.138.133.133C132.143,39.872,132.189,39.774,132.143,39.685Zm-1.046.2c.093.049.193,0,.273-.138.007-.015-.08-.1-.133-.133-.087-.054-.186,0-.266.138Zm-4.236-.612c-.047.089-.007.188.14.267a.4.4,0,0,0,.133-.133c.053-.084.007-.188-.14-.267Zm125.248-.138a.783.783,0,0,0,.14-.138c.053-.089,0-.188-.146-.267-.013-.01-.093.079-.127.133-.06.086-.006.18.134.274Zm-17.722-.207a.851.851,0,0,0,.14.138c.087.049.187,0,.266-.143.013-.015-.08-.094-.133-.128-.086-.053-.177,0-.277.134Zm-3.543-.2c.04-.049.1-.089.133-.138.053-.089.007-.188-.14-.267-.02-.01-.1.079-.133.128-.053.088,0,.182.14.276Zm-40.593-1.373.133.133c.147-.079.193-.183.14-.267-.033-.054-.113-.138-.133-.133-.146.078-.186.177-.14.266Zm3.337-.41.133.128c.146-.079.193-.178.14-.262-.033-.054-.113-.143-.133-.133-.145.079-.187.177-.14.266Zm-70.763.138a.789.789,0,0,0,.14-.138c.053-.089.007-.188-.14-.267-.02-.01-.1.079-.133.133-.053.085-.009.178.133.271Zm76.251-1.165-.133.133c.08.143.186.193.273.138.053-.035.14-.114.133-.128-.08-.144-.18-.188-.273-.144Zm23.843-.069a.75.75,0,0,0,.133-.138c.06-.084.007-.188-.14-.267a.474.474,0,0,0-.133.133c-.053.083,0,.182.14.271Zm-1.252,0a.747.747,0,0,0,.133-.138c.06-.084.007-.188-.14-.267a.59.59,0,0,0-.133.133c-.053.083,0,.182.14.271Zm-24.256-.341-.133.133c.08.143.18.193.266.138.053-.035.147-.114.133-.133-.08-.144-.173-.183-.266-.139Zm98.768-.341c-.047.089-.007.183.14.267.02,0,.1-.079.133-.133.053-.084.007-.188-.14-.267Zm-124,0-.133-.133c-.147.079-.193.183-.14.267.033.054.113.138.133.133.144-.085.184-.178.137-.267Zm176.131-.686.133.128c.147-.079.2-.178.14-.267-.033-.049-.113-.138-.133-.128-.143.082-.19.173-.143.266Zm-.766-.207-.126.133c.08.143.18.193.266.138.053-.035.14-.114.133-.128-.083-.144-.183-.188-.276-.144Zm-54.561.345a1.279,1.279,0,0,0,.133-.138c.053-.089.007-.188-.14-.267-.013-.01-.1.079-.133.128C292.789,34.431,292.842,34.525,292.983,34.619Zm-82.5-.484L210.61,34c-.08-.143-.18-.193-.266-.133-.053.03-.14.114-.133.128.072.143.172.187.267.138Zm-14.665.069a.75.75,0,0,0,.133-.138c.053-.084.007-.183-.14-.262-.013-.01-.1.074-.133.128-.059.089,0,.183.134.272Zm168.758-1.1c-.047.094,0,.188.147.267.013.01.093-.074.133-.128.053-.084,0-.188-.147-.267Zm-39.134-1.3-.127.133c.08.143.18.193.266.138.053-.035.14-.114.133-.128-.085-.143-.184-.182-.278-.138Zm47.965-2.6c.087.044.187,0,.266-.143.007-.015-.08-.094-.133-.128-.087-.054-.186,0-.266.138ZM119.774,45.844c-.047.089,0,.188.147.267.013.01.093-.079.133-.133.053-.084,0-.183-.147-.262ZM285.077,94.6l-.44-.4-.44.4H277.93c-.2,0-.426-.044-.553.173-.08.133.206.237.659.237H288.36l.519.425.793-.04.366-.36H291.3l.433.375h.826l.426-.39.426.39h1.652l.466-.4.393.044.453.365h10.676a.656.656,0,0,0,.18-.064l.3-.3a1.141,1.141,0,0,1,.286.193c.146.2.353.163.573.168l.446-.4h.819l.44.4h9.991l.446-.38.313.311c1.7.1,9.211.109,11.4.015l.3-.291c2.5-.1,11.429-.079,13.067.025l.313.306.453-.39H352.8q5.525,0,11.042-.01a.187.187,0,0,0,.173-.257c-.033-.059-.1-.138-.147-.138h-3.323l-.453-.41-.42.03c-.233.237-.446.538-.792.36l-.539-.435c-.4.133-.819-.059-1.219.119l-.313.311-.44-.365-.433.39Zm121.765-6.572-.46.42h-2.464l-.433.38h-.819l-.486-.4-.793.035-.34.331a.667.667,0,0,1-.186.054h-6.454a3.959,3.959,0,0,0-.42,0c-.06,0-.113.054-.173.079l-.313.311h-1.672l-.433-.39H391l-.446.4H377.636c-.047,0-.113.084-.14.143-.047.1.027.188.193.277H378.9l.6.593-.406.439c.027.188-.073.415.253.6.453,0,1.006.01,1.552-.01.087,0,.166-.148.253-.227l-.6-.583a.683.683,0,0,0-.2,0,.28.28,0,0,1-.353-.148c-.047-.089.027-.183.16-.291.153-.123.3-.267.406-.365h.826c.193.119.253.346.486.321l.3-.3a1.1,1.1,0,0,1,.28.193c.153.2.36.168.573.173l.453-.41h.819l.426.39.466-.4h14.126l.493-.42h7.04l.32-.316c1.785-.094,6.007-.1,8.065-.01l.293.291a.625.625,0,0,0,.18.054h1.931L418.95,88h.806l.433-.385h1.678l.753.746a.625.625,0,0,0,.18.054c.386.01.44-.035.506-.439.053-.336.053-.341.593-.38l.453-.4h.806c.053-.054.133-.089.153-.143.186-.425.047-.686-.353-.686h-1.432l-.473.425h-1.638c-.253.262-.466.553-.806.375l-.5-.4a4.54,4.54,0,0,0-1.259.084l-.3.291c-.593.148-1.225-.089-1.785.114l-.333.331h-1.649l-.453.415-.586-.583a2.645,2.645,0,0,0-.04-.4c-.04-.148-.153-.232-.253-.193a.262.262,0,0,0-.16.341.931.931,0,0,1,0,.193c-.147.311-.486.163-.7.306a.857.857,0,0,0-.147.143l-.173.168-.433-.365-.433.39ZM385.55,25.577l.44.4h3.323l.459-.41H401.82l.446-.385c.213.207.4.4.606.593a2.148,2.148,0,0,0,.326.207c.44-.094.966.257,1.339-.232l-.02-.385-.373-.43a1.519,1.519,0,0,1,.166-.163c.14-.1.206-.2.16-.291-.073-.143-.193-.168-.36-.148a4.972,4.972,0,0,1-.606,0l-.453.415-.4-.03-.42-.36h-.819l-.479.385h-8.152a.666.666,0,0,0-.186.054l-.293.291a1.856,1.856,0,0,1-.806.059H384.01a2.15,2.15,0,0,0-.593.069c-.16.04-.2.183-.147.341Zm-238.5.83a.189.189,0,0,0-.18.257c.027.059.093.138.14.138,1.392.01,2.784.01,4.163.01l.446.41.406-.025.42-.36h1.265l.32.311c.593.193,1.219-.044,1.812.148l.346.336c.426,0,.912-.02,1.392,0a6.3,6.3,0,0,1,1.592.059l.34.336h.839l.433-.4h1.232l.46.425h3.3l.493.42h2.038c.393.375.393.375.786,0l.44.365.433-.39h1.239c.053-.049.12-.089.147-.148a.2.2,0,0,0-.186-.252c-.413-.03-.826-.01-1.192-.01l-.506-.435h-4.962l-.386-.385h-1.152c-.346,0-.693.01-1.046,0a3.986,3.986,0,0,1-1.212-.069l-.3-.291a.855.855,0,0,0-.186-.044h-5a1.016,1.016,0,0,1-.213,0,.757.757,0,0,1-.167-.094l-.32-.316c-2.474-.007-4.972-.007-7.469,0Zm90.4.746a2.356,2.356,0,0,0,.593.064q5.634.007,11.262,0a1.747,1.747,0,0,1,.38.084l.313.306h.846l.433-.385h.4l.859.8c.593-.543.626-.543,1.212-.015l.466-.38c.353,0,.766-.015,1.179.015.093,0,.227.163.24.267.033.2.02.4.22.533l.866-.82c.166.02.34-.015.426.054.266.222.5.479.786.76a4.951,4.951,0,0,0,.766,0,.349.349,0,0,0,.286-.444.323.323,0,0,1,.18-.336l.419-.03.873.81.6-.593a.7.7,0,0,0-.12-.553c-.593-.193-1.219.044-1.812-.148l-.346-.336h-5.355c-.053,0-.107.064-.167.094l-.306.3-.439-.395H237.3c-.041.16,0,.308.159.348ZM87.82,71.6a.184.184,0,0,0-.16.262c.027.054.093.133.14.133,1.112.01,2.218.01,3.323.01l.453.42h1.638l.48.42h2.857l.473.4a14.184,14.184,0,0,0,1.618-.039l.46-.365c.386-.064.766.153,1-.242-.02-.193.06-.415-.113-.514-.373-.232-.872.2-1.1-.321.479-.514.479-.514.167-.988H98.23l-.46.42h-.793l-.486.425h-.773c-.193.119-.253.346-.486.321l-.746-.741-.446.4C91.983,71.6,89.9,71.587,87.82,71.6ZM276.472,95.016c.16,0,.306,0,.36-.128.1-.237-.166-.291-.266-.43a2.209,2.209,0,0,0-.3-.267H261.72l-.453-.41H256.7c-.053,0-.12.084-.147.138a.2.2,0,0,0,.18.257,6.211,6.211,0,0,0,.8.01c.073.069.12.119.173.163.366.336.486.336.852.059.413-.311.493-.311.859-.01.053.04.093.094.2.2H266.6a.54.54,0,0,1,.18.069l.293.286.42.054.466-.4h.823l.44.4C271.623,95.011,274.048,95.011,276.472,95.016Zm-30.623-1.234.433.4H249.2l.606-.593c-.04-.044-.073-.128-.126-.138a2.977,2.977,0,0,0-.593-.074h-3.543c-.14,0-.28.01-.42,0a.673.673,0,0,1-.18-.069l-.34-.341c-2.444,0-4.942,0-7.439.01-.08,0-.16.148-.233.237-.007.01.093.133.14.133.972.01,1.938,0,2.9,0l.473.439ZM119.076,83.506c1.8,0,3.6,0,5.4-.01.073,0,.193-.183.22-.291a.4.4,0,0,0-.42-.523c-3.53.01-7.06,0-10.583.015a.192.192,0,0,0-.187.252c.02.054.093.138.14.138.693.01,1.385,0,2.071,0l.453.415ZM311.237,33.4a2.035,2.035,0,0,1,.533.375h.8L313,33.4l.433.39h2.064l.446-.41.4.025.426.365h2.484l.466-.385a9.419,9.419,0,0,0,1.685-.069c.053-.02.14-.094.133-.143s-.087-.094-.133-.143c-1.991-.084-8.585-.084-10.789.01A.807.807,0,0,0,311.237,33.4Zm-195.7,9.228c-.486-.306-.486-.306-1.026.188h-3.756l-.44-.385h-2.484l-.439.4H106.16l-.433-.39-.473.4c-.453.173-.986-.267-1.385.178.1.074.2.207.3.207q5.525.015,11.036,0a1.731,1.731,0,0,0,.333-.1ZM83.629,67.075c-.053.01-.113.084-.14.143a.187.187,0,0,0,.18.252,10.273,10.273,0,0,0,1.039.01h7.919a.343.343,0,0,0,.346-.173c.067-.109-.18-.242-.446-.242H87.383c-.453-.459-.46-.464-1.325-.341l-.32.316-.446-.375h-.819l-.433.4a2.892,2.892,0,0,0-.415.014ZM112.8,41.21c.133-.1.2-.2.16-.286-.073-.148-.193-.168-.353-.153a5.1,5.1,0,0,1-.613.01l-.433.39-.433-.375c-.473-.168-.593.316-.906.4a6.129,6.129,0,0,0-1.179.044l-.46.365a4.244,4.244,0,0,0-.673.01c-.107.02-.286.163-.273.207a.3.3,0,0,0,.32.193c1.585,0,3.177,0,4.762-.01.1,0,.193-.138.28-.207l-.373-.42C112.7,41.309,112.742,41.255,112.8,41.21ZM144.79,30.239c-.167.435-.027.681.373.681h5.168c.053,0,.113-.079.147-.128a.13.13,0,0,0,.007-.138c-.18-.188-.366-.37-.539-.543l-.473.4c-.48-.079-.986.2-1.4-.2l.4-.43c-.473-.311-.479-.316-1.012.193l-.446-.38h-.4l-.433.4h-1.259A.531.531,0,0,0,144.79,30.239ZM354.7,92.552c-.047,0-.113.084-.14.143a.186.186,0,0,0,.173.252c1.385.02,2.771.01,4.123.01l.44-.38.493.4c.413-.03.826-.049,1.225-.089.053,0,.1-.094.16-.148-.047-.178.093-.41-.273-.607h-3.183c-.06,0-.113.049-.173.074l-.313.311-.44-.365-.4-.02-.446.41C355.533,92.547,355.12,92.542,354.7,92.552Zm-26.1-.173c-.073-.084-.153-.232-.226-.232q-2.687-.022-5.361,0c-.053,0-.113.079-.147.138-.047.094.007.212.167.262a1.4,1.4,0,0,0,.38,0l.46.41h4.143ZM271.3,29.69c-.053,0-.113.079-.147.133a.18.18,0,0,0,.16.262c2.91.015,5.814.01,8.725,0,.053,0,.113-.079.147-.133a.182.182,0,0,0-.16-.262c-1.452-.015-2.91-.01-4.362-.01s-2.907.006-4.359.011Zm79.347-1.244c.12.049.273.035.38.1a1.793,1.793,0,0,1,.333.321h3.683c.16,0,.293-.232.286-.464a.384.384,0,0,0-.213-.346h-1.233l-.433.39-.426-.4h-.813l-.44.37-.42-.351h-1.312a5.658,5.658,0,0,0,.612.381ZM226.258,26.407c-.053,0-.12.079-.147.133a.184.184,0,0,0,.166.262q3.526.015,7.053,0c.053,0,.12-.079.147-.133a.184.184,0,0,0-.166-.262c-1.172-.015-2.351-.01-3.53-.01s-2.347,0-3.519.01ZM426.229,87.328a.83.83,0,0,0,.007.4c.033.114.153.2.233.3l.406-.025.593-.588v-.4l.426-.449a.692.692,0,0,0-.18-.573h-1.245a1.43,1.43,0,0,0-.606.652C426.069,86.834,426.276,87.007,426.229,87.328ZM222.483,26.8c.047,0,.113-.074.147-.128a.173.173,0,0,0-.147-.262c-2.218-.02-4.429-.015-6.64-.01-.053,0-.113.079-.153.133a.176.176,0,0,0,.153.262c1.106.025,2.211.015,3.317.015S221.383,26.812,222.483,26.8Zm31.269,8.651a.517.517,0,0,0-.193.331c-.02.188.12.474.26.474h1.625c.047,0,.107-.079.14-.138a.136.136,0,0,0-.013-.133,3.39,3.39,0,0,0-.246-.252c-.233-.37.14-.844-.32-1.111h-1.219c-.053,0-.107.074-.14.128a.129.129,0,0,0,0,.138c.087.1.186.193.286.291a1.174,1.174,0,0,1-.177.272Zm93.416,57.084a.188.188,0,0,0,.166-.257c-.027-.059-.093-.138-.14-.138-1.372-.01-2.737-.01-4.109,0a.27.27,0,0,0-.16.1c-.033.035-.08.1-.067.138.027.059.093.1.153.158h1.219l.466.41h1.232l.44-.4a6.2,6.2,0,0,0,.8-.011ZM101.926,84.286l.426.044.46-.4h1.232l.44.4h.4l.446-.415a2.79,2.79,0,0,0,.406,0,.231.231,0,0,0,.14-.138.2.2,0,0,0-.186-.252c-1.445-.015-2.89-.01-4.382-.01.075.372.432.515.618.772Zm312.421-54.6c-.047,0-.113.079-.146.133a.181.181,0,0,0,.16.262q2.687.022,5.388,0c.047,0,.113-.079.146-.133a.179.179,0,0,0-.153-.262c-.9-.02-1.8-.01-2.7-.01s-1.795.01-2.694.015ZM414,31.414a.5.5,0,0,0-.559-.025c-.193.178-.373.365-.559.553.067.069.107.148.167.158.127.035.266.025.4.049a.34.34,0,0,1,.16.1c.107.089.2.193.3.291l.44-.4h1.658c.286-.439.286-.439-.02-.81h-.806l-.44.385c-.359.094-.541-.108-.741-.3ZM410.564,85.56l-.406-.025-.453-.39-.393.044-.453.365a4.93,4.93,0,0,0-.673.01c-.107.02-.293.163-.28.207a.3.3,0,0,0,.313.2c1.325,0,2.644,0,3.963-.01.08,0,.167-.148.233-.237l-.153-.153h-.806L411,85.156ZM288.819,30.51c-.047,0-.113.074-.146.128a.185.185,0,0,0,.153.267c1.8.015,3.6.01,5.4,0,.047,0,.113-.079.147-.133a.18.18,0,0,0-.153-.262c-.9-.025-1.8-.015-2.7-.015s-1.8.011-2.7.02Zm-7.519-.415c-.047,0-.113.084-.14.143a.185.185,0,0,0,.173.252c1.658.02,3.317.015,4.975,0,.047,0,.113-.079.14-.138a.19.19,0,0,0-.173-.257c-.826-.02-1.658-.01-2.484-.01s-1.658.011-2.491.011Zm15.445.825c-.053,0-.113.079-.146.133a.182.182,0,0,0,.153.262c1.658.015,3.317.01,4.975,0,.053,0,.113-.079.146-.133a.182.182,0,0,0-.16-.262c-.826-.025-1.652-.01-2.484-.01s-1.658.005-2.484.015Zm117.216-2.873c-.16.049-.226.163-.18.262.02.054.093.138.14.138q1.249.015,2.5,0c.053,0,.12-.079.146-.138.047-.1-.02-.222-.18-.257-.186-.044-.413.039-.559-.2l.426-.484a1.533,1.533,0,0,0-1.152-.074l-.739.726a2.135,2.135,0,0,0-.4.027Zm-68.678.237c-.08-.079-.167-.232-.246-.232-1.239,0-2.484.02-3.73.044-.047,0-.12.084-.14.143-.007.035.067.118.12.138a5.972,5.972,0,0,0,1.425.079,3.832,3.832,0,0,1,.386.069l.293.291.42.049.46-.39.426.385Zm-241.226,39.6c.053,0,.113-.079.14-.138a.135.135,0,0,0-.013-.133c-.18-.193-.373-.375-.553-.543-.706,0-1.385-.01-2.064.015-.073,0-.18.178-.207.291a.467.467,0,0,0,.2.518h.406l.433-.4.433.4c.413,0,.819,0,1.225-.005Zm49.977-37.038a.265.265,0,0,1-.14-.341c-.067,0-.166-.025-.2.01-.14.138-.26.3-.353.4h-1.732c-.053,0-.113.079-.147.133a.188.188,0,0,0,.16.262q1.848.022,3.69,0a.2.2,0,0,0,.193-.247.244.244,0,0,0-.14-.138,3.84,3.84,0,0,0-.493,0,5.25,5.25,0,0,0-.36-.415c-.033-.035-.133-.01-.2-.01C154.274,30.8,154.183,30.92,154.034,30.846Zm26.82-1.911a18.432,18.432,0,0,0-3.47.015.173.173,0,0,0-.107.133c.02.059.087.138.14.143.266.035.539.044.859.064l.44.385h.819l.433-.4h1.039c.047-.157,0-.325-.153-.34Zm60.833,2.8c-.493,0-1.039-.01-1.578.01-.1,0-.2.138-.3.217a.684.684,0,0,0,.153.543,7.49,7.49,0,0,0,1.412.049c.2.01.406,0,.613,0a.409.409,0,0,0,.18-.064,1.882,1.882,0,0,0,.147-.138ZM415.6,85.151l-.433-.39-.446.39h-.653a.294.294,0,0,0-.32.193c-.013.049.173.207.266.212.906.015,1.8.01,2.7,0a7.776,7.776,0,0,0,1.019-.069c.153-.02.193-.183.146-.341Zm26.24-51.772c-.333.074-.706-.143-.972.163.08.37.42.193.559.267l.46.365a13.339,13.339,0,0,1,1.718.1l.293.3c.253.064.506.128.639-.193l-.586-.583h-1.668Zm-327.053,3.3c-.406-.02-.819,0-1.232-.01a5.479,5.479,0,0,1-1.2-.049l-.293-.286c-.233-.035-.28.212-.44.281s-.366.089-.553.148a.2.2,0,0,0-.093.133.333.333,0,0,0,.14.143.484.484,0,0,0,.186.044h3.49a2.559,2.559,0,0,0,.42-.143c-.2-.134-.307-.253-.424-.262ZM98.23,49l-.446-.41-.413.02c-.28.247-.28.242-.859.435a.264.264,0,0,0-.14.143.18.18,0,0,0,.107.138,1.018,1.018,0,0,0,.38.079,18.631,18.631,0,0,0,2.677-.064c.153-.025.193-.188.146-.341ZM112.6,83.2a.391.391,0,0,0-.406-.523c-.753.02-1.5,0-2.258.015a.2.2,0,0,0-.186.247c.02.059.093.1.14.148h1.232l.446.415h.813C112.456,83.408,112.576,83.319,112.6,83.2ZM424.178,33.967c.08.079.153.217.24.227a6.713,6.713,0,0,0,.766.01,2.8,2.8,0,0,1,.346-.331.485.485,0,0,1,.559,0c.113.074.18.217.3.277a.615.615,0,0,0,.386.044c.1-.025.166-.148.246-.227l-.586-.583h-1.672ZM96.971,67.489c.147-.114.193-.2.12-.3a.318.318,0,0,0-.366-.119,1.2,1.2,0,0,1-.18.02l-.426.37c-.479.173-.593-.326-.919-.39-.313.064-.693-.163-.926.217l.6.593h1.672C96.671,67.765,96.811,67.612,96.971,67.489Zm-10.489-1.3a19.372,19.372,0,0,0,3.477-.015.179.179,0,0,0,.106-.138.239.239,0,0,0-.14-.143c-.739-.138-1.5.054-2.178-.1l-.353-.346-.44.4h-.619c-.046.149-.006.323.148.338Zm-6.594-.751c-.053,0-.113.079-.147.133a.173.173,0,0,0,.147.262c1.239.02,2.484.015,3.723,0,.053,0,.113-.074.146-.128a.178.178,0,0,0-.146-.267c-.619-.025-1.245-.01-1.865-.01s-1.238,0-1.858.007ZM409.739,25.983c.047,0,.113-.074.147-.128a.18.18,0,0,0-.147-.267c-1.106-.02-2.2-.01-3.31,0-.047,0-.113.074-.147.128a.178.178,0,0,0,.147.267c.553.03,1.105.01,1.652.01S409.183,26,409.739,25.983ZM373.475,89.264c-.047,0-.113.079-.146.138a.183.183,0,0,0,.16.257c1.106.02,2.2.015,3.31,0,.047,0,.113-.079.147-.133a.189.189,0,0,0-.16-.262c-.553-.025-1.106-.01-1.658-.01S374.028,89.259,373.475,89.264ZM431.45,87.2h1.645c.053,0,.113-.079.146-.133a.18.18,0,0,0-.153-.262c-.679-.025-1.365-.01-2.051-.01l-.44.41a2.68,2.68,0,0,0-.4.01c-.06,0-.113.074-.147.128a.177.177,0,0,0,.153.262,5.568,5.568,0,0,0,.812.01ZM84.47,52.7c-.047,0-.113.079-.147.133a.181.181,0,0,0,.153.262c1.105.02,2.2.01,3.31,0,.047,0,.113-.079.147-.133a.181.181,0,0,0-.16-.262c-.546-.03-1.1-.01-1.652-.01s-1.1,0-1.651,0ZM433.089,35.028h.433l.579-.573c-.067-.084-.127-.237-.2-.237-.533-.02-1.072-.015-1.612-.015-.313.39-.313.39-.027.815l.446-.415ZM113.095,84.474c-.16.435-.027.676.366.676.753,0,1.505.015,2.258-.01a.181.181,0,0,0,.153-.262c-.027-.054-.093-.133-.14-.133-.686-.01-1.372,0-2.065,0l-.433-.41C113.188,84.375,113.115,84.415,113.095,84.474ZM92.862,70.426a5.551,5.551,0,0,0-1.785,0c-.053.01-.1.089-.147.138.013.188-.087.4.14.553a1.58,1.58,0,0,0,.893.03,1.9,1.9,0,0,1,.526-.356c.193-.044.393-.04.519-.222-.046-.049-.086-.128-.146-.142Zm-.892-1.294c-.047,0-.113.079-.14.138a.18.18,0,0,0,.16.257c.966.02,1.931.015,2.89,0,.053,0,.113-.079.147-.138a.186.186,0,0,0-.167-.257c-.479-.03-.966-.01-1.445-.01s-.959,0-1.445.011ZM435.6,87.615l.446-.415h.406c.293-.449.293-.449-.053-.815l-.4.025-.733.716c-.2.212-.779-.109-.7.489ZM129.412,32.881a5.039,5.039,0,0,0,1.8.04c.053,0,.12-.084.133-.138.013-.035-.053-.118-.107-.138-.12-.04-.26-.04-.373-.089s-.32-.148-.313-.2c.067-.331-.313-.148-.38-.346-.033-.1-.18-.168-.453-.4a1.033,1.033,0,0,1-.406,1.126C129.352,32.8,129.372,32.871,129.412,32.881ZM418.9,32.14c.067,0,.127-.158.18-.232l-.559-.578h-.832c-.28.4-.28.4-.007.82.4,0,.812.015,1.218-.01Zm-2.83-1.565a11.106,11.106,0,0,0-2.624,0c-.053,0-.1.089-.147.138.426.247.426.247,3.057.133C416.166,30.664,416.119,30.58,416.066,30.575ZM405.19,24.354a.191.191,0,0,0-.166.262c.033.054.093.133.147.133.826.01,1.645.02,2.471,0a.183.183,0,0,0,.166-.257c-.033-.054-.093-.133-.147-.133-.346-.015-.686-.01-1.032-.01-.48-.006-.959-.025-1.439,0ZM367.19,95a.186.186,0,0,0,.167-.257c-.033-.059-.1-.138-.147-.138-.826,0-1.652-.015-2.471,0a.184.184,0,0,0-.167.257c.033.059.093.138.147.138.34.01.686,0,1.032,0,.478.009.957.029,1.432,0ZM395.633,91.8a11.107,11.107,0,0,0-2.624,0c-.053.01-.1.094-.146.138.42.247.42.247,3.05.133C395.733,91.886,395.683,91.8,395.633,91.8Zm-10.922-.484c.047,0,.107-.069.146-.123.02-.035.033-.109.013-.133-.173-.207-.36-.4-.5-.558h-.892c-.293.42-.293.42.007.82.406,0,.819,0,1.225-.01Zm-19.567-.81a3.2,3.2,0,0,0-.44,0c-.047.01-.107.079-.14.138a.19.19,0,0,0,.173.252c.54.025,1.079.015,1.618,0,.047,0,.107-.069.147-.119.073-.089.02-.173-.113-.286a4.224,4.224,0,0,1-.393-.41h-.486ZM98.849,68.925v.435l-.44.375a1.806,1.806,0,0,0,1.658.03c-.12-.4-.633-.079-.793-.43l.406-.415C99.262,68.639,99.262,68.639,98.849,68.925ZM71.963,54.345c-.053,0-.113.074-.147.128a.173.173,0,0,0,.147.262c.826.025,1.652.015,2.471.01.053,0,.113-.079.153-.133a.177.177,0,0,0-.153-.262c-.406-.035-.819-.01-1.232-.01S72.376,54.335,71.963,54.345ZM98.616,57.2a.189.189,0,0,0,.166-.257c-.027-.054-.093-.094-.14-.143H97.4l-.433-.4c-.293.4-.293.4.007.815.547-.006,1.093.009,1.639-.016Zm.326,4.133c.233.074.413.3.646.385a.437.437,0,0,0,.513-.207c-.033-.183.087-.4-.206-.568a4.957,4.957,0,0,0-.526-.03,2.08,2.08,0,0,0-.972.128c.159.251.359.237.546.291ZM78.616,67.484c.3-.41.3-.41,0-.82H77.8c-.346.41-.306.533,0,.82ZM95.7,82.684h.44c.28-.425.28-.425-.02-.815-.406,0-.819-.025-1.219.01a.176.176,0,0,0-.147.262c.033.054.087.123.147.133a4.2,4.2,0,0,0,.439,0Zm160.134,11.5a.191.191,0,0,0,.173-.257c-.027-.059-.093-.138-.14-.138-.686-.01-1.379-.02-2.058,0a.184.184,0,0,0-.173.252c.027.059.093.138.146.138.273.015.546.01.819.01C255.013,94.2,255.426,94.211,255.833,94.182Zm46.327,2.469c-.14.1-.193.193-.14.281.08.133.193.148.346.138.473-.015.946.015,1.419-.015a.2.2,0,0,0,.187-.247c-.013-.054-.087-.094-.14-.148h-.813l-.44-.4c-.14.129-.273.267-.419.39ZM236.232,26.8a.186.186,0,0,0,.173-.252c-.027-.059-.093-.138-.14-.138-.686-.01-1.372-.02-2.058,0a.184.184,0,0,0-.173.252c.027.059.093.138.146.138.273.015.546.01.819.01A12.059,12.059,0,0,0,236.232,26.8Zm167.746.9a7.218,7.218,0,0,0-2.211,0c-.053,0-.1.089-.147.138.393.227.393.227,2.637.128-.186-.172-.226-.256-.279-.266ZM107.614,84.524c.007.054.073.109.133.143a.181.181,0,0,0,.266-.143,5.344,5.344,0,0,0,.007-.8c-.32-.212-.32-.217-.513-.212-.26,0-.539-.074-.739.222l.839.365A2.94,2.94,0,0,0,107.614,84.524ZM405.17,90.5h.433c.127-.128.253-.286.406-.415.133-.109.18-.188.113-.286a.345.345,0,0,0-.353-.128,4.963,4.963,0,0,1-.606,0,.488.488,0,0,0,.007.829Zm-31.928.222c.1.089.2.173.3.262l.14.138c.293.277.413.272.832-.02V90.56c-.42.036-.831-.3-1.272.155Zm-2.564,4.424c-.04-.049-.1-.119-.147-.123-.273-.01-.546,0-.812,0l-.433-.4c-.286.435-.293.435.04.81h1.225c.147-.1.193-.2.127-.289Zm39.567-70.46a.292.292,0,0,0,.127-.138c.08-.193-.013-.183-.186-.217s-.273-.262-.386-.385h-.406c-.326.143-.293.39-.186.83.411-.058.731.07,1.037-.093ZM262.133,27.627a3.178,3.178,0,0,0,.439,0l.366.42.6-.588c-.067-.079-.133-.227-.213-.232-.4-.025-.806-.01-1.205-.01C261.94,27.444,261.94,27.6,262.133,27.627Zm85.541.484a5.2,5.2,0,0,0-1.792,0c-.053.01-.1.089-.147.138.36.232.36.242,2.211.123C347.774,28.2,347.727,28.121,347.674,28.111ZM88.639,52.7c-.053,0-.113.079-.147.133a.183.183,0,0,0,.16.262c.546.025,1.092.015,1.638,0,.053,0,.113-.079.146-.138a.182.182,0,0,0-.16-.257,5.66,5.66,0,0,0-.819-.01C89.183,52.7,88.913,52.686,88.639,52.7ZM171.183,32.55a.18.18,0,0,0,.16-.257c-.033-.059-.093-.133-.146-.138-.546,0-1.092-.02-1.638.01a.178.178,0,0,0-.16.257c.033.054.093.128.147.133.2.015.406.01.613.01a8.887,8.887,0,0,0,1.024-.015Zm239.4-4.513c-.133.118-.186.193-.133.286a.319.319,0,0,0,.353.133c.2-.02.406,0,.606,0,.3-.4.3-.4.013-.82h-.48A4.472,4.472,0,0,1,410.583,28.037ZM138.228,32.965a.188.188,0,0,0,.166-.257c-.027-.059-.087-.138-.14-.138-.546-.01-1.092-.025-1.638,0a.181.181,0,0,0-.166.252c.027.059.087.138.14.138.2.02.406.01.613.01a9.762,9.762,0,0,0,1.027-.006ZM85.088,65.638c-.306-.281-.4-.281-.846.01.047.178-.087.4.153.538.373.054.759.222,1.139-.178-.145-.124-.3-.243-.444-.371ZM90.3,81.463c-.047,0-.113.079-.14.138-.047.094.02.188.167.267.406,0,.819,0,1.225-.01.047,0,.113-.079.14-.138.047-.094-.02-.188-.167-.267-.4,0-.81-.006-1.223.009ZM95.3,80.229c-.053,0-.113.079-.147.138-.047.094.02.188.166.267h1.225c.053,0,.113-.084.147-.138.047-.094-.02-.188-.167-.267-.409-.006-.816-.011-1.222,0ZM94.192,61.056c-.027-.054-.093-.138-.14-.138-.413-.01-.819,0-1.232,0-.147.079-.206.173-.16.267.027.054.086.138.14.138.406.01.819,0,1.225,0,.149-.081.216-.174.169-.268Zm6.533-13.7c-.053,0-.113.084-.147.138-.047.094.02.188.167.267h1.225c.053,0,.113-.079.147-.138.047-.094-.02-.188-.167-.267-.41,0-.816-.008-1.222,0Zm3.9-1.792c.033-.1-.027-.188-.167-.267-.266,0-.533-.015-.793.01-.067.01-.12.163-.173.247l.573.563Zm309.3-21.627c-.047,0-.113.084-.14.138-.047.094.02.188.166.267h1.225c.047,0,.113-.079.14-.138.047-.094-.02-.188-.167-.267-.409,0-.821-.008-1.228,0Zm-273.38,8.616a.181.181,0,0,0,.007-.193.509.509,0,0,0-.533-.207,2.067,2.067,0,0,0-.313.222c-.133.128-.253.277-.353.385.12.3.353.183.553.212l.446-.41c.063,0,.156.027.189-.007Zm2.93-2.652v.4c.426.286.426.286.833-.01v-.4c-.43-.289-.43-.289-.837.012Zm140.686-.286a2.832,2.832,0,0,0,1.379,0c.053-.015.1-.089.153-.143-.486-.331-1.012-.178-1.8-.123.171.179.211.253.265.268Zm76.8-1.17c.053,0,.113-.079.147-.138.047-.094-.02-.188-.167-.267-.413,0-.819,0-1.225.01-.053,0-.113.079-.147.133-.047.094.02.193.167.267.406,0,.812.006,1.218,0ZM351.8,26.816c-.053,0-.113.074-.147.133-.053.089.007.188.153.272h1.225c.053,0,.113-.079.147-.133.053-.094-.007-.188-.153-.272-.413,0-.826-.009-1.232,0Zm21.878-1.02v.4c.426.286.426.286.839-.01v-.4C374.083,25.5,374.083,25.5,373.675,25.8Zm4.868-.143a3.2,3.2,0,0,0-1.352-.035c-.053,0-.1.084-.146.133.08.079.153.222.233.227.466.02.939.01,1.4.01a.249.249,0,0,0-.14-.336Zm-244.729,58c-.033-.059-.093-.138-.146-.138-.406-.015-.813-.01-1.225-.01-.147.079-.213.173-.166.267.033.059.093.138.146.138.406.015.813.01,1.225.01.146-.078.213-.172.166-.265ZM315.5,96.66c-.047,0-.113.084-.14.138-.047.094.02.188.166.267h1.225c.047,0,.113-.079.14-.138.047-.094-.02-.188-.166-.267C316.319,96.655,315.906,96.65,315.5,96.66Zm-73.673-.681c-.027-.059-.093-.138-.14-.138-.413-.01-.819,0-1.232,0-.147.079-.206.173-.16.267.027.054.087.133.14.138.406.01.819,0,1.225,0,.147-.079.213-.173.166-.267ZM213.883,94.33c-.033-.054-.1-.133-.147-.133-.406-.01-.819,0-1.225,0-.147.084-.207.178-.153.272.033.054.093.133.146.133.406.01.813,0,1.225,0C213.874,94.517,213.934,94.424,213.883,94.33Zm177.31-3.639v-.4c-.42-.286-.426-.286-.832.01v.4c.422.266.422.266.83-.01Zm-21.119.143a2.8,2.8,0,0,0,1.372,0c.06-.01.1-.089.233-.217a3.463,3.463,0,0,0-1.845-.01c.138.138.178.217.238.227Zm40.373-4.182c.027.054.093.138.14.138.413.01.819,0,1.226,0,.146-.079.213-.173.167-.267-.027-.059-.093-.138-.14-.138-.413-.01-.819,0-1.225,0-.15.079-.217.173-.17.267Zm8.836-1.511c.087,0,.16-.143.226-.232l-.133-.138a3.5,3.5,0,0,0-1.359.044.246.246,0,0,0-.133.336C418.35,85.151,418.816,85.165,419.283,85.141ZM313.315,97.07c.26-.015.539.059.719-.207a.544.544,0,0,0-.52-.207c-.26.015-.539-.064-.726.207A.561.561,0,0,0,313.315,97.07Zm-5.008,0c.26-.015.546.059.726-.207a.55.55,0,0,0-.52-.207c-.26.015-.546-.064-.726.207A.55.55,0,0,0,308.307,97.07Zm41.285-.415c.266-.01.546.064.726-.207a.531.531,0,0,0-.52-.2c-.26.01-.539-.064-.726.207a.536.536,0,0,0,.52.2Zm-13.253,0c.053,0,.113-.079.146-.133.06-.089.007-.183-.146-.272h-.813c-.147.089-.2.183-.14.272a.788.788,0,0,0,.14.138c.273-.005.546,0,.813-.01Zm16.29-4.1c-.147.089-.206.183-.147.277a.635.635,0,0,0,.147.133c.266,0,.539.01.813,0,.047,0,.107-.074.14-.128.06-.094.007-.188-.14-.277Zm33.493-.143c.047-.094-.02-.188-.16-.267h-.819a.675.675,0,0,0-.14.143c-.047.094.02.188.16.267h.82a1.034,1.034,0,0,0,.139-.151Zm-101.505.143c.146-.079.213-.173.16-.267a.459.459,0,0,0-.14-.143h-.813c-.146.079-.206.173-.16.267.027.054.093.094.14.143ZM396.7,90.215a1,1,0,0,0-.14.138c-.1.138-.36.212-.286.415.093.242.346.119.533.143.313-.385.306-.39.033-.8Zm32.968-1.366c.26-.01.546.064.726-.207a.536.536,0,0,0-.519-.2c-.26.01-.546-.064-.726.207a.536.536,0,0,0,.519.2Zm4.282-2.464c-.147.084-.2.183-.14.277.033.049.093.123.14.128.273.01.546,0,.813,0a.769.769,0,0,0,.147-.133c.06-.094,0-.193-.147-.277ZM110.391,84a1.645,1.645,0,0,0-.939-.039c-.053.01-.14.123-.14.128.067.089.14.227.226.237.326.025.659.01.986.01a.251.251,0,0,0-.133-.336Zm-2.677-.9c.26-.01.539.064.726-.207a.547.547,0,0,0-.526-.2c-.26.01-.539-.064-.719.207A.531.531,0,0,0,107.714,83.1Zm-3.257,0c.147-.079.206-.173.16-.267-.027-.054-.093-.094-.14-.143h-.813c-.147.079-.206.173-.16.267a.528.528,0,0,0,.14.143ZM78.063,72.15c-.047.089.013.188.16.267h.812a.6.6,0,0,0,.14-.143c.053-.094-.013-.188-.16-.267H78.2C78.157,72.051,78.09,72.091,78.063,72.15ZM97.1,69.266c-.033-.054-.093-.128-.146-.133-.266-.01-.539,0-.813,0a.783.783,0,0,0-.14.138c-.06.089-.007.188.14.272h.812C97.111,69.454,97.164,69.355,97.1,69.266Zm2.651-1.916c.033.054.093.128.146.128.273.015.539,0,.813,0a1.115,1.115,0,0,0,.147-.133c.053-.094,0-.188-.147-.277H99.9C99.755,67.163,99.695,67.257,99.755,67.35Zm-4.889-1.1c.147-.084.207-.178.16-.267-.027-.059-.093-.1-.14-.148h-.813c-.147.084-.213.178-.16.272a.593.593,0,0,0,.14.143ZM78.1,65.84c.26-.015.539.059.726-.207a.555.555,0,0,0-.526-.207c-.26.015-.539-.064-.719.207a.544.544,0,0,0,.519.211Zm23.88-4.519c-.146.089-.2.183-.146.277a1.109,1.109,0,0,0,.146.133h.812c.147-.084.206-.183.147-.272a.829.829,0,0,0-.147-.138ZM78.626,54.339c-.146.084-.2.183-.14.272.033.054.093.128.14.133.273.01.546,0,.813,0a.65.65,0,0,0,.146-.138c.06-.089.007-.188-.146-.272Zm40.317-14.516c.033.054.093.128.14.128.273.015.546,0,.812,0a.631.631,0,0,0,.147-.133c.06-.094.007-.188-.147-.277h-.813C118.936,39.635,118.883,39.729,118.943,39.823Zm130.563-3.56c.26-.015.546.059.726-.212-.326-.37-.726-.178-1.332-.114a.629.629,0,0,0,.606.326ZM182.183,35.3c.047-.094-.013-.188-.16-.267h-.812c-.047.044-.113.084-.14.143-.047.094.013.188.16.267h.813C182.093,35.389,182.159,35.349,182.183,35.3Zm240.886-.267c.147-.079.213-.178.167-.267a.674.674,0,0,0-.14-.143h-.813c-.14.079-.206.173-.16.267a1.032,1.032,0,0,0,.14.143Zm12.514-.41c.146-.084.213-.178.16-.272-.027-.054-.093-.094-.14-.143h-.813c-.146.084-.206.178-.16.267.027.059.093.1.14.148ZM137.341,33.39a.452.452,0,0,0-.506.163.5.5,0,0,0,.187.647c.04.035.126,0,.193,0-.053-.321.266-.4.4-.6a.986.986,0,0,0-.271-.211Zm186.1-.415c-.146.079-.213.173-.16.267.027.054.093.094.14.143h.812c.147-.079.206-.173.16-.267a.528.528,0,0,0-.14-.143Zm-30.256-1.037.14.143a.848.848,0,0,0,.14.138c.14.089.2.355.42.257s.107-.346.14-.548a.537.537,0,0,0-.836.009ZM186.116,30.1c.26-.015.546.059.726-.212-.326-.37-.726-.178-1.332-.114a.629.629,0,0,0,.606.326Zm180.579-1.23c.26-.015.539.064.726-.212-.326-.37-.726-.178-1.332-.114a.624.624,0,0,0,.606.326Zm52.508-.681c-.047.094.013.188.16.267h.813c.047-.044.113-.084.14-.143.053-.089-.013-.188-.16-.267h-.813C419.3,28.091,419.229,28.13,419.2,28.185Zm-18.528-.553c-.26.015-.539-.064-.719.207a.544.544,0,0,0,.519.207c.26-.015.539.059.726-.212a.542.542,0,0,0-.527-.2Zm-62.637-.41c-.14.079-.206.173-.16.267a1.03,1.03,0,0,0,.14.143h.819c.14-.079.206-.173.16-.267a.676.676,0,0,0-.14-.143Zm32.934-.82c.127-.114.186-.193.127-.281-.133-.212-.353-.109-.539-.133-.306.267-.306.538.02.849a4.629,4.629,0,0,1,.391-.435Zm11.469-.953a.45.45,0,0,0,.167.5.536.536,0,0,0,.659-.188c.027-.044.007-.123.007-.188-.333.049-.406-.267-.619-.4a.9.9,0,0,0-.216.276Zm-1.252.138a.3.3,0,0,0-.133-.346c-.093-.059-.173,0-.286.123a5.488,5.488,0,0,1-.446.42.549.549,0,0,0,.866,0,.974.974,0,0,1-.007-.2ZM311.958,96.862a.513.513,0,1,0-.421.218.507.507,0,0,0,.421-.218Zm-54.426.2a1.355,1.355,0,0,0,.4,0c.06,0,.113-.074.147-.128a.187.187,0,0,0,.013-.133.448.448,0,0,0-.686-.01c-.027.035-.013.089-.013.138.045.042.084.121.138.131Zm98.708-.538c.14.207.6.2.686-.01a.155.155,0,0,0-.007-.133.466.466,0,0,0-.693,0c.006.052-.007.115.013.141Zm-4.036.128a1.354,1.354,0,0,0,.4,0,.269.269,0,0,0,.14-.128.146.146,0,0,0,.013-.138c-.093-.2-.546-.212-.686,0-.02.03-.007.089-.013.138.045.038.092.117.145.126Zm-9.6,0a1.4,1.4,0,0,0,.406,0,.269.269,0,0,0,.14-.128.167.167,0,0,0,.013-.138c-.093-.2-.546-.212-.686,0-.027.03-.013.089-.013.138.049.038.089.117.142.126Zm-1.265,0c.146-.069.206-.173.153-.262a.278.278,0,0,0-.14-.138.536.536,0,0,0-.2,0c-.26,0-.426.128-.36.272a.27.27,0,0,0,.346.138.536.536,0,0,0,.2-.012Zm-110.083-1.22a.328.328,0,0,0-.14.133c-.047.094.007.193.16.267.053.025.133-.01.193,0a.27.27,0,0,0,.346-.143c.073-.138-.1-.267-.36-.272a.538.538,0,0,0-.2.014Zm142-.212a.731.731,0,1,0,.006,0Zm-22.311-2.666a.3.3,0,0,0-.14.138c-.053.089.007.193.153.262.053.03.133,0,.2.01a.272.272,0,0,0,.346-.143c.067-.143-.1-.272-.36-.272a.536.536,0,0,0-.193,0Zm40.659-.622a1.327,1.327,0,1,0,.006,0Zm-159.514.2a1.8,1.8,0,0,0,.4,0,.269.269,0,0,0,.14-.128.168.168,0,0,0,.013-.138c-.093-.212-.546-.217-.686-.01-.02.035-.007.094-.013.138.052.05.1.129.152.138Zm169.318-.415a1.355,1.355,0,0,0,.4,0c.053,0,.107-.074.14-.123a.168.168,0,0,0,.013-.138c-.087-.212-.546-.222-.686-.01-.02.035-.007.094-.013.138.052.05.1.129.152.134Zm-175.372-.2a.292.292,0,1,1,.006,0Zm191.015-1.231a.507.507,0,1,0-.419.222A.512.512,0,0,0,417.051,90.286Zm16.932-2.667a.276.276,0,0,0-.146.1c-.033.035-.073.1-.06.133a.229.229,0,0,0,.127.133c.453.114.579.04.666-.375C434.368,87.615,434.174,87.61,433.983,87.619ZM407.463,87a.514.514,0,1,0-.421.217.507.507,0,0,0,.421-.217Zm21.678-.825a.511.511,0,1,0,.418-.219.507.507,0,0,0-.418.219Zm-11.675,0a.506.506,0,0,0-.833,0,.5.5,0,0,0,.831,0ZM111.983,84.741a.491.491,0,1,0-.225-.412.491.491,0,0,0,.225.412Zm-1.332-.084a1.833,1.833,0,0,0,.353.084.265.265,0,0,0,.306-.173c.013-.064-.12-.212-.206-.227a3.236,3.236,0,0,0-.579-.01A.248.248,0,0,0,110.651,84.657Zm-12.214-.943a.322.322,0,0,0,.14.138c.093.049.193-.01.266-.153.027-.054-.007-.133.007-.2a.264.264,0,0,0-.146-.341c-.14-.069-.273.1-.273.356a.491.491,0,0,0,.005.2Zm-2.5-.41a1.565,1.565,0,0,0,0,.4c.007.054.08.109.133.143a.194.194,0,0,0,.14.01c.207-.089.213-.538.007-.676-.033-.025-.093-.01-.14-.015-.052.044-.132.084-.145.138Zm5.288-.123a1.377,1.377,0,0,0-.353-.079.246.246,0,0,0-.3.168c-.013.064.12.212.2.227a3.234,3.234,0,0,0,.579.01.243.243,0,0,0-.131-.327Zm.966-2.755a.5.5,0,0,0,.832,0,.506.506,0,0,0-.84,0Zm-4.4.2c.147-.069.207-.173.153-.267a.269.269,0,0,0-.14-.133.541.541,0,0,0-.2,0c-.26,0-.426.128-.36.267a.268.268,0,0,0,.346.143.536.536,0,0,0,.2-.008Zm1.638-.41a.276.276,0,0,0,.147-.1c.033-.035.08-.1.067-.128a.23.23,0,0,0-.133-.133c-.446-.114-.573-.04-.659.37.191,0,.385,0,.578-.007Zm4.422-5.13a.5.5,0,0,0-.832,0,.506.506,0,0,0,.832,0Zm336.138-4.931a.507.507,0,1,0-.419.222A.507.507,0,0,0,439.989,70.155ZM87.361,65.015c.153-.069.206-.173.16-.262a.319.319,0,0,0-.146-.138.5.5,0,0,0-.193,0c-.26,0-.433.128-.36.272a.262.262,0,0,0,.34.138.536.536,0,0,0,.2-.01Zm15.032-4.508a.327.327,0,0,0-.14.133c-.047.094.007.2.153.267.06.025.14-.01.2,0a.27.27,0,0,0,.346-.143c.073-.138-.1-.267-.36-.267a.54.54,0,0,0-.2.01Zm-13.06-2.6c.14.207.6.2.686-.01a.167.167,0,0,0-.007-.138.456.456,0,0,0-.693.01c.006.042-.007.1.013.136Zm7.22-1.921a.492.492,0,1,0-.224-.414.491.491,0,0,0,.224.414ZM75.707,54.347a.268.268,0,0,0-.14.133c-.053.094.007.2.153.267.053.025.133-.01.2,0a.262.262,0,0,0,.34-.143c.073-.138-.093-.267-.353-.267a.536.536,0,0,0-.2.008Zm19.807-3.5a.512.512,0,0,0-.839,0,.512.512,0,0,0,.838,0Zm349.251-3.5c.153-.069.206-.173.16-.262a.32.32,0,0,0-.147-.138.5.5,0,0,0-.193,0c-.26,0-.433.128-.36.267a.256.256,0,0,0,.34.143.531.531,0,0,0,.2-.009ZM102.394,45.3a.34.34,0,0,0-.14.138c-.047.089.007.193.153.262.06.03.14-.01.2.01a.274.274,0,0,0,.346-.143c.073-.143-.1-.272-.36-.272a.54.54,0,0,0-.2.006Zm344.268-1.851a.507.507,0,0,0-.839,0,.507.507,0,0,0,.839,0Zm-.206-1.027a.347.347,0,0,0-.146.138c-.047.094.007.193.16.267.053.025.133-.01.2,0a.264.264,0,0,0,.34-.143c.073-.138-.1-.267-.353-.267a.673.673,0,0,0-.2,0ZM124.065,39.951c.147-.069.206-.173.153-.262a.341.341,0,0,0-.14-.138.54.54,0,0,0-.2,0c-.26,0-.426.128-.36.272a.265.265,0,0,0,.346.138c.067-.005.147.02.2-.01Zm312.793-5.742a.373.373,0,0,0-.14.138c-.047.089.007.193.153.267.06.025.14-.01.2,0a.27.27,0,0,0,.346-.143c.073-.138-.1-.267-.36-.272a.672.672,0,0,0-.2.01Zm-315.278.4a1.355,1.355,0,0,0,.4,0c.053,0,.107-.074.14-.123a.146.146,0,0,0,.013-.138c-.087-.212-.546-.222-.686-.01-.02.035-.007.094-.013.138.049.049.093.128.149.133Zm-1.272,0c.153-.074.207-.178.16-.267a.347.347,0,0,0-.147-.138.665.665,0,0,0-.2,0c-.253,0-.426.133-.353.272a.26.26,0,0,0,.34.143.536.536,0,0,0,.2-.005Zm189.357-1.22a.32.32,0,0,0-.147.138c-.047.089.007.193.16.262.053.03.133,0,.2.01a.271.271,0,0,0,.34-.143c.073-.143-.093-.272-.353-.272A.531.531,0,0,0,309.665,33.389Zm-45.881-.83a.493.493,0,1,0,.223.413.491.491,0,0,0-.223-.413Zm35.032,0a1.4,1.4,0,0,0,.406,0c.053,0,.107-.074.14-.123a.168.168,0,0,0,.013-.138c-.093-.207-.546-.212-.686-.01-.027.035-.013.094-.013.138.047.045.087.124.14.129Zm-52.541,0a1.355,1.355,0,0,0,.4,0c.053,0,.107-.074.14-.123a.168.168,0,0,0,.013-.138c-.093-.212-.546-.222-.686-.01-.02.035-.007.094-.013.138.047.045.093.124.146.129Zm-8.551-.2a.5.5,0,0,0,.832,0,.5.5,0,0,0-.832,0Zm-35.032-.825a.5.5,0,0,0,.833,0,.5.5,0,0,0-.833,0ZM286.935,30.3a.5.5,0,0,0,.833,0,.5.5,0,0,0-.833,0Zm-21.079-.622c.146-.069.206-.173.153-.262a.278.278,0,0,0-.14-.138.54.54,0,0,0-.2,0c-.26,0-.426.128-.353.272a.26.26,0,0,0,.34.138.536.536,0,0,0,.2-.012Zm83.05-1.225a.276.276,0,0,0-.147.1c-.033.035-.08.1-.067.133a.262.262,0,0,0,.133.133c.453.114.573.04.659-.375-.191,0-.385,0-.578.007Zm69.058-.133c.133.207.593.2.686-.01a.167.167,0,0,0-.013-.138c-.14-.207-.593-.2-.686.01,0,.042-.014.1.013.136Zm-68.281-1.108c.153-.069.206-.173.16-.267a.309.309,0,0,0-.147-.133.5.5,0,0,0-.193,0c-.26,0-.433.128-.36.267a.26.26,0,0,0,.34.143.531.531,0,0,0,.2-.01Zm50.043-.82c.153-.074.206-.178.16-.267a.374.374,0,0,0-.14-.138.672.672,0,0,0-.2,0c-.26,0-.433.128-.36.272a.259.259,0,0,0,.346.138c.064-.006.137.02.19-.006Zm-28.132-.2a.512.512,0,0,0,.839,0,.512.512,0,0,0-.843,0Zm44.622-2.054a.507.507,0,0,0,.839,0,.507.507,0,0,0-.843,0Zm-5.255.2c.053,0,.107-.059.146-.1s.08-.1.067-.133a.262.262,0,0,0-.133-.133c-.446-.114-.573-.039-.659.37.189,0,.382.006.576-.009ZM318.42,96.67c-.02-.01-.1.074-.133.128-.053.084-.007.188.14.267l.133-.128c.043-.1,0-.2-.143-.272Zm-12.514,0c-.013-.01-.1.074-.133.128-.053.084-.007.188.14.267l.14-.128c.043-.1,0-.2-.15-.272Zm-46.294.4c.153-.079.2-.183.147-.267-.033-.054-.12-.138-.133-.128-.146.074-.193.173-.146.267Zm95.5-.41c.146-.079.2-.183.14-.267-.033-.054-.113-.138-.133-.133-.14.079-.186.178-.14.267Zm-7.086,0c.147-.079.193-.183.14-.267-.033-.054-.12-.138-.133-.133-.146.079-.186.178-.146.267Zm-2.078,0a.474.474,0,0,0,.133-.133c.053-.084,0-.188-.14-.267l-.14.133c-.045.08,0,.178.148.257Zm-1.252,0a.474.474,0,0,0,.133-.133c.053-.084.007-.188-.14-.267l-.133.133c-.045.08-.005.178.141.257Zm-16.264,0a.474.474,0,0,0,.133-.133c.053-.084.007-.188-.14-.267l-.14.133c-.045.08,0,.178.148.257Zm-5.628-.2c.08.143.18.193.266.138.053-.035.147-.114.133-.133-.08-.143-.173-.183-.266-.138Zm51.7-1.225c-.08-.143-.18-.193-.266-.138-.053.03-.14.114-.133.128.08.143.18.188.273.143Zm-6.24-.42c.08.143.186.193.273.138.053-.035.14-.114.133-.133-.08-.143-.18-.183-.273-.138ZM251.7,94.193c.013.01.1-.074.133-.128.053-.089.007-.188-.14-.267l-.133.128c-.05.083-.01.177.137.256Zm110.51-1.629c-.02,0-.1.079-.133.133-.06.084-.007.188.14.267l.133-.133c.043-.1,0-.2-.144-.279Zm-21.485.2c-.08-.143-.18-.193-.266-.138-.053.035-.14.119-.133.133.08.143.18.188.273.138Zm-21.878-.2c-.146.079-.2.183-.14.267.033.054.113.143.127.133.146-.079.193-.178.146-.267Zm68.591-.207c-.08-.143-.186-.193-.273-.138-.053.035-.14.114-.133.133.08.143.18.183.273.138Zm-3.337,0c-.08-.143-.186-.193-.273-.138-.053.035-.14.114-.133.133.08.143.18.183.273.138Zm-21.059-.2c-.02-.01-.1.079-.133.133-.053.084-.007.188.14.267l.133-.133c.043-.1,0-.2-.143-.282Zm-31.342.336c.087.054.186,0,.266-.138.013-.02-.073-.1-.133-.133-.087-.054-.18,0-.273.133a.852.852,0,0,0,.137.123Zm-10.143-.138c.08.143.18.193.266.138.06-.035.147-.119.14-.133-.087-.143-.18-.188-.273-.138Zm75.684-.212c.147-.079.193-.178.14-.262-.033-.054-.12-.143-.133-.133-.146.079-.193.178-.146.267Zm-166.807-.41c.013.01.093-.079.126-.133.06-.084.007-.183-.14-.262l-.133.128c-.049.079,0,.173.144.252Zm-.839,0c.02.01.1-.079.133-.133.053-.084.007-.183-.14-.262l-.133.128c-.049.079-.01.173.137.252Zm20.646-.612c.08.143.186.193.273.138.053-.035.14-.114.133-.128-.08-.148-.18-.188-.273-.143Zm-.433.01c-.073-.148-.18-.2-.266-.138-.053.03-.14.114-.133.128.08.143.18.188.273.143ZM412.663,90.5a.49.49,0,0,0-.127.133c-.06.084-.007.188.14.267l.133-.133C412.856,90.676,412.809,90.577,412.663,90.5Zm-19.794.2c.08.143.18.193.266.138.053-.035.146-.114.133-.133-.08-.143-.173-.183-.266-.138Zm-4.809-.2a.474.474,0,0,0-.133.133c-.053.084-.007.188.14.267l.14-.133C388.247,90.676,388.207,90.577,388.06,90.5Zm-15.844.4c.14-.079.193-.183.14-.267-.033-.054-.12-.138-.133-.133-.147.079-.193.178-.147.267Zm-167.433-.607c-.007.015.08.1.133.133.087.054.186,0,.266-.143l-.127-.128c-.092-.048-.192,0-.272.14Zm-52.341-.2c-.147.079-.2.183-.14.267.033.054.113.138.133.128.147-.074.186-.173.14-.267Zm270.17-.079c.087.054.186,0,.266-.138.013-.015-.08-.094-.133-.128-.087-.054-.18,0-.273.133a.813.813,0,0,0,.141.132Zm-240.154-.331c-.013-.01-.1.079-.133.133-.053.084-.007.183.14.262l.14-.128c.047-.09,0-.189-.146-.268Zm-.832,0c-.013-.01-.1.079-.133.133-.053.084-.007.183.14.262l.133-.128c.047-.09.007-.189-.139-.268Zm-1.252,0c-.013-.01-.1.079-.133.133-.053.084-.007.183.14.262l.14-.128c.047-.09,0-.189-.146-.268ZM425.11,89.6c.093.054.193,0,.273-.138.007-.015-.08-.1-.133-.128-.087-.054-.186,0-.28.133A1.061,1.061,0,0,0,425.11,89.6Zm2.5-.41c.087.054.193,0,.273-.138.007-.015-.08-.1-.133-.133-.093-.049-.186,0-.28.138a1.064,1.064,0,0,0,.144.137Zm4.662-.76c.013.01.1-.074.133-.128.053-.089,0-.188-.14-.267l-.14.128c-.042.1.005.2.151.27Zm-41.911-.82a.259.259,0,0,0,.32-.1c.087-.1.073-.183-.08-.257-.027-.015-.093.025-.127.049a.309.309,0,0,0-.113.138c-.016.06-.023.16,0,.174ZM98.852,80.634a.257.257,0,0,0,.107.316c.1.084.18.074.26-.079.013-.03-.027-.094-.053-.128a.3.3,0,0,0-.14-.109c-.05-.016-.163-.021-.17,0Zm-.007-.415a.268.268,0,0,0-.346.133c-.073.143.047.237.346.277Zm1.8-.074c.087.054.193,0,.273-.138.007-.015-.08-.094-.133-.128-.087-.054-.186,0-.28.133a.819.819,0,0,0,.149.137Zm-5-2.054c.087.054.186,0,.266-.138.013-.015-.08-.094-.133-.128-.087-.054-.18,0-.273.133a.81.81,0,0,0,.148.138Zm8.831-2.81a.474.474,0,0,0,.133-.133c.053-.084,0-.188-.14-.262l-.14.128c-.038.093.008.192.154.271Zm-8.758,0a.474.474,0,0,0,.133-.133c.053-.084,0-.188-.14-.262l-.14.128c-.038.093.012.192.155.271Zm-9.817-3.9c-.08-.143-.18-.193-.266-.133-.053.03-.14.114-.133.128.08.143.18.188.273.138Zm-3.949-4.32a.4.4,0,0,0,.133-.133c.053-.084.007-.188-.14-.267l-.133.133c-.039.1,0,.2.147.275Zm-2.085,0A.4.4,0,0,0,80,66.928c.053-.084.007-.188-.14-.267l-.133.133c-.039.1,0,.2.148.275Zm-9.8-.617c.08.148.186.2.273.138.053-.03.14-.114.133-.128-.08-.143-.18-.188-.273-.143Zm16.077-.617c.173.084.26,0,.173-.173-.04-.084-.153-.138-.24-.188l-.127.119c.066.1.119.211.2.249Zm-15.871-.81c-.147.079-.193.183-.14.267.033.054.113.143.133.133.147-.079.187-.178.14-.267Zm12.72-.627c.08.143.186.193.273.138.053-.03.14-.114.133-.128-.08-.143-.18-.188-.273-.138ZM77.365,54.337c-.147.079-.2.178-.147.267.04.049.12.138.133.128.147-.079.193-.173.147-.267Zm5-1.249c.013.01.1-.074.133-.128.053-.089.007-.188-.14-.267l-.14.128c-.025.1.015.2.165.275ZM94.04,49.395a.4.4,0,0,0,.133-.133c.053-.084.007-.188-.14-.267l-.133.133c-.032.1.008.2.154.274Zm351.789-1.84c.08.143.187.193.273.138.053-.035.14-.114.133-.133-.08-.143-.18-.183-.273-.138ZM101.56,46.113c.02.01.1-.079.133-.133.06-.084.007-.183-.14-.262l-.133.128C101.374,45.936,101.413,46.034,101.56,46.113Zm1.665-2.879c.147-.079.193-.178.14-.262-.033-.054-.12-.143-.133-.133-.147.079-.193.178-.147.267Zm-1.672,0c.147-.084.2-.183.14-.267-.033-.054-.113-.138-.133-.133-.147.079-.187.178-.14.267Zm16.69-3.678c-.147.074-.193.178-.14.262.033.054.12.138.133.133.147-.079.187-.178.14-.267Zm127.406-2.483a.271.271,0,0,0,.326-.1c.08-.1.067-.178-.087-.257-.027-.015-.093.025-.126.054a.314.314,0,0,0-.113.133C245.629,36.954,245.629,37.068,245.649,37.073Zm.007-1.022c.08.143.18.193.266.138.053-.035.14-.114.133-.128-.08-.143-.18-.188-.273-.143Zm-.839-.2a.261.261,0,0,0,.107.316c.1.084.186.074.26-.079.02-.03-.02-.089-.047-.123a.4.4,0,0,0-.14-.114.273.273,0,0,0-.18,0Zm-128.034-.615c-.007.015.08.1.133.133.093.054.193,0,.273-.138l-.133-.133C116.965,35.048,116.865,35.1,116.783,35.236Zm-.7.133c.087.054.193,0,.273-.138.007-.02-.08-.1-.133-.133-.087-.054-.187,0-.28.133a.85.85,0,0,0,.14.138Zm12.1-.825c.087.054.193,0,.273-.138.007-.015-.08-.1-.133-.128-.093-.054-.186,0-.28.133a1.057,1.057,0,0,0,.145.134Zm-9.8-.064c.053-.089.007-.188-.14-.267-.013-.01-.1.079-.133.128-.053.089,0,.183.14.277.038-.049.1-.088.131-.138Zm304.3-.284c.147-.079.2-.178.147-.267-.04-.054-.12-.138-.133-.128-.146.079-.193.173-.146.267Zm-153.88,0c.02.01.1-.079.133-.133.06-.084.007-.183-.14-.262l-.133.128C268.606,34.021,268.646,34.12,268.793,34.2ZM129.5,34.2c.146-.079.193-.178.14-.267-.033-.054-.12-.138-.133-.128-.147.074-.193.173-.147.267Zm175.791-.612c.08.143.18.193.266.138.06-.035.146-.119.133-.133-.08-.143-.173-.183-.266-.138Zm-40.033-.415c.08.148.18.193.266.143.053-.035.14-.118.133-.133-.08-.143-.18-.188-.273-.138Zm-23.983.2c.013.01.093-.074.133-.128.053-.084,0-.188-.147-.267l-.133.128c-.044.1,0,.194.147.272Zm-1.252,0c.013.01.1-.074.133-.128.053-.084,0-.188-.14-.267l-.14.128c-.047.1,0,.194.147.272Zm51.089-1.012c-.007.015.08.094.133.128.087.054.186,0,.266-.138l-.127-.133c-.093-.04-.192.005-.272.148Zm-61.319-.439c.087-.173,0-.262-.173-.173-.087.039-.14.148-.193.237l.12.118a.573.573,0,0,0,.246-.177Zm-76.517.222c.02.01.1-.079.133-.133.053-.084.007-.188-.14-.262l-.133.128c-.047.094-.007.193.14.272Zm-22.731,0a.277.277,0,0,0,.326-.1c.087-.1.073-.183-.08-.257-.033-.015-.093.02-.133.049a.386.386,0,0,0-.113.138c-.013.051-.02.165,0,.175Zm289.211-.41c.146-.079.193-.183.14-.267-.033-.054-.113-.138-.133-.133-.147.079-.186.178-.14.267Zm-189.957,0a.274.274,0,0,0,.326-.109c.086-.094.073-.178-.08-.252-.027-.015-.093.02-.127.049a.3.3,0,0,0-.113.133.31.31,0,0,0,0,.184Zm10.769-.543c.06-.089.007-.188-.14-.267-.013-.01-.1.079-.133.133-.053.084,0,.178.14.272a.748.748,0,0,0,.134-.129ZM156.391,30.3c-.08-.143-.18-.193-.266-.138-.06.03-.147.114-.133.128.08.143.173.188.266.143Zm-2.078.2a.256.256,0,0,0-.14-.336c-.146-.074-.24.044-.28.336Zm-16.47,0c.02.01.1-.079.133-.133.053-.084.007-.183-.14-.262l-.133.128c-.046.087-.006.186.141.26Zm120.52-.82c.146-.079.193-.183.14-.267-.033-.054-.12-.138-.133-.133-.147.079-.193.178-.147.267ZM182.6,29.55c.06-.084.007-.188-.14-.267a.474.474,0,0,0-.133.133c-.053.084,0,.183.14.272a.749.749,0,0,0,.133-.14Zm-1.585-.272a.261.261,0,0,0,.107.321c.093.084.18.069.26-.079.013-.03-.027-.094-.053-.128a.336.336,0,0,0-.14-.109c-.054-.022-.167-.027-.174-.007Zm-8.345-.622c.08.143.186.193.273.138.053-.035.14-.114.133-.128-.08-.143-.18-.188-.273-.143Zm249.391-.4c-.007.015.08.094.133.128.087.054.193,0,.273-.138l-.133-.133c-.093-.047-.193,0-.273.141Zm-9.6,0c-.08-.143-.186-.193-.273-.138-.053.03-.14.114-.133.128.08.143.18.188.273.138Zm-4.789-.2c-.147.079-.193.178-.14.262.033.054.12.143.133.133.147-.079.193-.178.147-.267Zm-8.758.4c.02.01.1-.079.133-.133.06-.084.007-.183-.14-.262l-.133.128c-.05.08-.01.178.137.258Zm-3.543,0a.271.271,0,0,0,.326-.1c.08-.1.067-.183-.087-.257-.027-.015-.093.02-.127.049a.36.36,0,0,0-.113.138c-.022.042-.022.151,0,.161Zm-39.614-.2c.08.143.18.193.266.138.053-.035.147-.114.133-.128-.08-.143-.173-.188-.266-.143Zm-6.26.2a.259.259,0,0,0,.32-.1c.087-.1.073-.183-.08-.257-.027-.015-.093.02-.127.049a.36.36,0,0,0-.113.138c-.024.042-.024.151,0,.161Zm-8.771-1.017c-.08-.143-.18-.193-.266-.138-.053.035-.14.114-.133.133.08.143.18.183.273.138Zm13.154-.612c-.146.079-.2.178-.146.267.033.054.12.138.133.128.146-.079.193-.173.146-.267Zm-7.579.331c.087.054.186,0,.266-.138.007-.015-.08-.094-.133-.128-.087-.054-.186,0-.28.133a.853.853,0,0,0,.142.123Zm16.75-.346c.02.01.1-.079.133-.128.053-.089.007-.188-.14-.267l-.133.128c-.051.084-.011.178.135.257Zm-125.921,0c.173.084.26,0,.173-.173a.545.545,0,0,0-.246-.188l-.12.119a.513.513,0,0,0,.189.232Zm-12.4-.128c.053-.089.007-.188-.14-.267-.02-.01-.1.079-.133.128-.06.089-.007.183.133.277a1.374,1.374,0,0,0,.135-.148Zm-13.48.128c.013.01.1-.079.133-.128.053-.089.007-.188-.14-.267l-.133.128c-.052.084-.012.178.135.257ZM378.69,26a.253.253,0,0,0,.107.316c.1.084.18.074.26-.079.013-.03-.027-.089-.053-.123a.4.4,0,0,0-.14-.114C378.81,25.973,378.7,25.973,378.69,26Zm-171.269.336c.087.054.186,0,.266-.138.007-.015-.08-.1-.133-.128-.087-.059-.18,0-.273.133a1.064,1.064,0,0,0,.14.129Zm204-.346c.147-.079.193-.183.14-.267-.033-.054-.12-.138-.133-.133-.147.079-.186.178-.147.267Zm-31.5-.2c.013-.02-.073-.1-.133-.133-.087-.054-.186,0-.266.138l.133.133c.094.039.187,0,.267-.144Zm-3.337,0c-.073-.143-.18-.193-.266-.138-.053.035-.14.114-.133.133.08.143.18.183.273.138Zm41.926-1.448c.02.01.1-.079.133-.133.06-.084.007-.188-.14-.262l-.133.128C418.324,24.161,418.37,24.259,418.51,24.338Zm-6.054-.193c-.08-.148-.186-.193-.273-.143-.053.035-.14.118-.133.133.08.143.18.188.273.143Z" transform="translate(-70.067 -23.916)" fill="#5A0A1D"/>
</svg>